<svg width="555" height="95" viewBox="0 0 555 95" fill="none" xmlns="http://www.w3.org/2000/svg">
<path d="M499.002 14V3.09091H500.323V12.8281H505.394V14H499.002ZM509.676 14.1918C509.158 14.1918 508.687 14.0941 508.265 13.8988C507.842 13.6999 507.507 13.4141 507.258 13.0412C507.009 12.6648 506.885 12.2102 506.885 11.6776C506.885 11.2088 506.978 10.8288 507.162 10.5376C507.347 10.2429 507.594 10.0121 507.903 9.84517C508.212 9.67827 508.552 9.55398 508.925 9.4723C509.302 9.38707 509.68 9.3196 510.06 9.26989C510.557 9.20597 510.96 9.15803 511.269 9.12607C511.582 9.09055 511.809 9.03196 511.951 8.95028C512.097 8.86861 512.169 8.72656 512.169 8.52415V8.48153C512.169 7.95597 512.025 7.54759 511.738 7.25639C511.454 6.9652 511.022 6.8196 510.443 6.8196C509.843 6.8196 509.373 6.95099 509.032 7.21378C508.691 7.47656 508.451 7.7571 508.313 8.0554L507.12 7.62926C507.333 7.1321 507.617 6.74503 507.972 6.46804C508.331 6.1875 508.721 5.99219 509.144 5.8821C509.57 5.76847 509.989 5.71165 510.401 5.71165C510.664 5.71165 510.965 5.74361 511.306 5.80753C511.651 5.8679 511.983 5.99396 512.302 6.18572C512.626 6.37749 512.894 6.6669 513.107 7.05398C513.32 7.44105 513.426 7.95952 513.426 8.60938V14H512.169V12.892H512.105C512.02 13.0696 511.878 13.2596 511.679 13.462C511.48 13.6644 511.216 13.8366 510.886 13.9787C510.555 14.1207 510.152 14.1918 509.676 14.1918ZM509.868 13.0625C510.365 13.0625 510.784 12.9648 511.125 12.7695C511.47 12.5742 511.729 12.3221 511.903 12.0131C512.081 11.7042 512.169 11.3793 512.169 11.0384V9.88778C512.116 9.9517 511.999 10.0103 511.818 10.0636C511.64 10.1133 511.434 10.1577 511.2 10.1967C510.969 10.2322 510.744 10.2642 510.523 10.2926C510.307 10.3175 510.131 10.3388 509.996 10.3565C509.669 10.3991 509.364 10.4684 509.08 10.5643C508.799 10.6566 508.572 10.7969 508.398 10.9851C508.228 11.1697 508.142 11.4219 508.142 11.7415C508.142 12.1783 508.304 12.5085 508.627 12.7322C508.954 12.9524 509.367 13.0625 509.868 13.0625ZM515.721 17.0682V5.81818H516.935V7.1179H517.085C517.177 6.97585 517.305 6.79474 517.468 6.57457C517.635 6.35085 517.873 6.15199 518.182 5.97798C518.494 5.80043 518.917 5.71165 519.45 5.71165C520.138 5.71165 520.746 5.88388 521.271 6.22834C521.797 6.5728 522.207 7.06108 522.502 7.69318C522.797 8.32528 522.944 9.07102 522.944 9.9304C522.944 10.7969 522.797 11.5479 522.502 12.1836C522.207 12.8157 521.799 13.3058 521.277 13.6538C520.755 13.9982 520.153 14.1705 519.471 14.1705C518.945 14.1705 518.525 14.0835 518.208 13.9094C517.892 13.7319 517.649 13.5312 517.479 13.3075C517.308 13.0803 517.177 12.892 517.085 12.7429H516.978V17.0682H515.721ZM516.957 9.90909C516.957 10.527 517.047 11.0721 517.228 11.5444C517.409 12.0131 517.674 12.3807 518.022 12.647C518.37 12.9098 518.796 13.0412 519.3 13.0412C519.826 13.0412 520.265 12.9027 520.616 12.6257C520.971 12.3452 521.238 11.9687 521.415 11.4964C521.596 11.0206 521.687 10.4915 521.687 9.90909C521.687 9.33381 521.598 8.81534 521.42 8.35369C521.246 7.88849 520.982 7.52095 520.627 7.25107C520.275 6.97763 519.833 6.84091 519.3 6.84091C518.789 6.84091 518.359 6.97053 518.011 7.22976C517.663 7.48544 517.401 7.84411 517.223 8.30575C517.045 8.76385 516.957 9.2983 516.957 9.90909ZM528.42 5.81818V6.88352H524.18V5.81818H528.42ZM525.415 3.85795H526.673V11.6562C526.673 12.0114 526.724 12.2777 526.827 12.4553C526.934 12.6293 527.069 12.7464 527.232 12.8068C527.399 12.8636 527.575 12.892 527.759 12.892C527.898 12.892 528.011 12.8849 528.1 12.8707C528.189 12.853 528.26 12.8388 528.313 12.8281L528.569 13.9574C528.484 13.9893 528.365 14.0213 528.212 14.0533C528.059 14.0888 527.866 14.1065 527.631 14.1065C527.276 14.1065 526.928 14.0302 526.587 13.8775C526.25 13.7248 525.969 13.4922 525.746 13.1797C525.526 12.8672 525.415 12.473 525.415 11.9972V3.85795ZM533.547 14.1705C532.808 14.1705 532.16 13.9947 531.602 13.6431C531.048 13.2915 530.615 12.7997 530.303 12.1676C529.994 11.5355 529.839 10.7969 529.839 9.9517C529.839 9.09943 529.994 8.35547 530.303 7.71982C530.615 7.08416 531.048 6.59055 531.602 6.23899C532.16 5.88743 532.808 5.71165 533.547 5.71165C534.285 5.71165 534.932 5.88743 535.486 6.23899C536.043 6.59055 536.476 7.08416 536.785 7.71982C537.098 8.35547 537.254 9.09943 537.254 9.9517C537.254 10.7969 537.098 11.5355 536.785 12.1676C536.476 12.7997 536.043 13.2915 535.486 13.6431C534.932 13.9947 534.285 14.1705 533.547 14.1705ZM533.547 13.0412C534.108 13.0412 534.569 12.8974 534.932 12.6097C535.294 12.3221 535.562 11.9439 535.736 11.4751C535.91 11.0064 535.997 10.4986 535.997 9.9517C535.997 9.40483 535.91 8.89524 535.736 8.42294C535.562 7.95064 535.294 7.56889 534.932 7.2777C534.569 6.98651 534.108 6.84091 533.547 6.84091C532.986 6.84091 532.524 6.98651 532.162 7.2777C531.8 7.56889 531.531 7.95064 531.357 8.42294C531.183 8.89524 531.096 9.40483 531.096 9.9517C531.096 10.4986 531.183 11.0064 531.357 11.4751C531.531 11.9439 531.8 12.3221 532.162 12.6097C532.524 12.8974 532.986 13.0412 533.547 13.0412ZM539.173 17.0682V5.81818H540.388V7.1179H540.537C540.629 6.97585 540.757 6.79474 540.92 6.57457C541.087 6.35085 541.325 6.15199 541.634 5.97798C541.946 5.80043 542.369 5.71165 542.902 5.71165C543.591 5.71165 544.198 5.88388 544.723 6.22834C545.249 6.5728 545.659 7.06108 545.954 7.69318C546.249 8.32528 546.396 9.07102 546.396 9.9304C546.396 10.7969 546.249 11.5479 545.954 12.1836C545.659 12.8157 545.251 13.3058 544.729 13.6538C544.207 13.9982 543.605 14.1705 542.923 14.1705C542.397 14.1705 541.977 14.0835 541.661 13.9094C541.345 13.7319 541.101 13.5312 540.931 13.3075C540.76 13.0803 540.629 12.892 540.537 12.7429H540.43V17.0682H539.173ZM540.409 9.90909C540.409 10.527 540.499 11.0721 540.68 11.5444C540.862 12.0131 541.126 12.3807 541.474 12.647C541.822 12.9098 542.248 13.0412 542.753 13.0412C543.278 13.0412 543.717 12.9027 544.068 12.6257C544.423 12.3452 544.69 11.9687 544.867 11.4964C545.048 11.0206 545.139 10.4915 545.139 9.90909C545.139 9.33381 545.05 8.81534 544.873 8.35369C544.699 7.88849 544.434 7.52095 544.079 7.25107C543.727 6.97763 543.285 6.84091 542.753 6.84091C542.241 6.84091 541.812 6.97053 541.464 7.22976C541.116 7.48544 540.853 7.84411 540.675 8.30575C540.498 8.76385 540.409 9.2983 540.409 9.90909ZM554.109 7.65057L552.98 7.97017C552.909 7.78196 552.804 7.59908 552.666 7.42152C552.531 7.24041 552.346 7.09126 552.112 6.97408C551.877 6.85689 551.577 6.7983 551.211 6.7983C550.711 6.7983 550.293 6.91371 549.96 7.14453C549.629 7.3718 549.464 7.66122 549.464 8.01278C549.464 8.32528 549.578 8.57209 549.805 8.7532C550.032 8.9343 550.388 9.08523 550.87 9.20597L552.085 9.50426C552.816 9.68182 553.362 9.95348 553.72 10.3192C554.079 10.6815 554.258 11.1484 554.258 11.7202C554.258 12.1889 554.123 12.608 553.853 12.9773C553.587 13.3466 553.214 13.6378 552.735 13.8509C552.255 14.0639 551.698 14.1705 551.062 14.1705C550.228 14.1705 549.537 13.9893 548.99 13.6271C548.443 13.2649 548.097 12.7358 547.951 12.0398L549.145 11.7415C549.258 12.1818 549.473 12.5121 549.789 12.7322C550.109 12.9524 550.526 13.0625 551.041 13.0625C551.627 13.0625 552.092 12.9382 552.437 12.6896C552.785 12.4375 552.959 12.1357 552.959 11.7841C552.959 11.5 552.859 11.2621 552.66 11.0703C552.461 10.875 552.156 10.7294 551.744 10.6335L550.38 10.3139C549.631 10.1364 549.081 9.86115 548.729 9.48828C548.381 9.11186 548.207 8.64134 548.207 8.0767C548.207 7.61506 548.337 7.20668 548.596 6.85156C548.859 6.49645 549.216 6.21768 549.667 6.01527C550.121 5.81286 550.636 5.71165 551.211 5.71165C552.021 5.71165 552.657 5.8892 553.118 6.24432C553.584 6.59943 553.914 7.06818 554.109 7.65057Z" fill="black"/>
<path d="M378.048 49V29.928H371.776V26.6H387.968V29.928H381.504V49H378.048ZM389.492 49V32.2H392.82V37.48L392.5 36.2C392.734 35.3893 393.129 34.6533 393.684 33.992C394.26 33.3307 394.91 32.808 395.635 32.424C396.382 32.04 397.15 31.848 397.94 31.848C398.302 31.848 398.644 31.88 398.964 31.944C399.305 32.008 399.572 32.0827 399.764 32.168L398.9 35.752C398.644 35.6453 398.356 35.56 398.036 35.496C397.737 35.4107 397.438 35.368 397.14 35.368C396.564 35.368 396.009 35.4853 395.476 35.72C394.964 35.9333 394.505 36.2427 394.1 36.648C393.716 37.032 393.406 37.4907 393.172 38.024C392.937 38.536 392.82 39.1013 392.82 39.72V49H389.492ZM408.286 49.32C407.091 49.32 406.046 49.0427 405.15 48.488C404.275 47.9333 403.592 47.1547 403.102 46.152C402.632 45.1493 402.398 43.9547 402.398 42.568V32.2H405.694V41.672C405.694 43.144 406.035 44.3067 406.718 45.16C407.422 46.0133 408.392 46.44 409.63 46.44C410.248 46.44 410.814 46.344 411.326 46.152C411.838 45.9387 412.275 45.6507 412.638 45.288C413.022 44.9253 413.32 44.488 413.534 43.976C413.747 43.464 413.854 42.9093 413.854 42.312V32.2H417.15V49H413.854V45.48L414.43 45.096C414.174 45.8853 413.736 46.6 413.118 47.24C412.52 47.88 411.806 48.392 410.974 48.776C410.142 49.1387 409.246 49.32 408.286 49.32ZM429.613 49.32C427.885 49.32 426.349 48.9573 425.005 48.232C423.682 47.4853 422.637 46.472 421.869 45.192C421.122 43.912 420.749 42.44 420.749 40.776C420.749 39.4533 420.962 38.248 421.389 37.16C421.815 36.072 422.402 35.1333 423.149 34.344C423.917 33.5333 424.823 32.9147 425.869 32.488C426.935 32.04 428.087 31.816 429.325 31.816C430.413 31.816 431.426 32.0293 432.365 32.456C433.303 32.8613 434.114 33.4267 434.797 34.152C435.501 34.8773 436.034 35.7413 436.397 36.744C436.781 37.7253 436.962 38.8027 436.941 39.976L436.909 41.384H423.181L422.445 38.76H434.061L433.581 39.304V38.536C433.517 37.832 433.282 37.2027 432.877 36.648C432.471 36.0933 431.959 35.656 431.341 35.336C430.722 35.016 430.05 34.856 429.325 34.856C428.173 34.856 427.202 35.08 426.413 35.528C425.623 35.9547 425.026 36.5947 424.621 37.448C424.215 38.28 424.013 39.3147 424.013 40.552C424.013 41.7253 424.258 42.7493 424.749 43.624C425.239 44.4773 425.933 45.1387 426.829 45.608C427.725 46.0773 428.759 46.312 429.933 46.312C430.765 46.312 431.533 46.1733 432.237 45.896C432.962 45.6187 433.741 45.1173 434.573 44.392L436.237 46.728C435.725 47.24 435.095 47.688 434.349 48.072C433.623 48.456 432.845 48.7653 432.013 49C431.202 49.2133 430.402 49.32 429.613 49.32ZM450.324 49V26.6H453.78V45.672H464.276V49H450.324ZM477.975 49V38.056C477.975 37.1173 477.633 36.36 476.951 35.784C476.289 35.1867 475.447 34.888 474.423 34.888C473.484 34.888 472.631 35.08 471.863 35.464C471.116 35.848 470.433 36.4347 469.815 37.224L467.671 35.08C468.673 33.992 469.751 33.1813 470.903 32.648C472.076 32.1147 473.335 31.848 474.679 31.848C475.959 31.848 477.068 32.0613 478.007 32.488C478.945 32.9147 479.671 33.544 480.183 34.376C480.695 35.1867 480.951 36.1787 480.951 37.352V49H477.975ZM472.951 49.32C471.863 49.32 470.892 49.1067 470.039 48.68C469.185 48.2533 468.503 47.6667 467.991 46.92C467.5 46.152 467.255 45.256 467.255 44.232C467.255 43.336 467.415 42.5467 467.735 41.864C468.055 41.1813 468.524 40.616 469.143 40.168C469.783 39.72 470.572 39.3787 471.511 39.144C472.471 38.9093 473.569 38.792 474.807 38.792H479.479L479.191 41.416H474.391C473.751 41.416 473.175 41.48 472.663 41.608C472.172 41.7147 471.745 41.896 471.383 42.152C471.041 42.3867 470.785 42.6747 470.615 43.016C470.444 43.336 470.359 43.72 470.359 44.168C470.359 44.6373 470.476 45.0533 470.711 45.416C470.945 45.7573 471.265 46.024 471.671 46.216C472.076 46.408 472.545 46.504 473.079 46.504C473.847 46.504 474.572 46.376 475.255 46.12C475.959 45.8427 476.577 45.4693 477.111 45C477.665 44.5307 478.092 44.008 478.391 43.432L479.159 45.576C478.711 46.3227 478.156 46.9733 477.495 47.528C476.833 48.0827 476.119 48.52 475.351 48.84C474.583 49.16 473.783 49.32 472.951 49.32ZM485.117 56.04V32.2H488.445V36.04L487.933 35.752C488.061 35.112 488.423 34.504 489.021 33.928C489.618 33.3307 490.343 32.8507 491.197 32.488C492.071 32.104 492.967 31.912 493.885 31.912C495.399 31.912 496.743 32.2853 497.917 33.032C499.09 33.7787 500.018 34.8027 500.701 36.104C501.383 37.4053 501.725 38.8987 501.725 40.584C501.725 42.248 501.383 43.7413 500.701 45.064C500.039 46.3653 499.122 47.4 497.949 48.168C496.775 48.9147 495.453 49.288 493.981 49.288C492.999 49.288 492.05 49.096 491.133 48.712C490.215 48.3067 489.437 47.7947 488.797 47.176C488.157 46.5573 487.762 45.9173 487.613 45.256L488.445 44.808V56.04H485.117ZM493.437 46.248C494.418 46.248 495.293 46.0027 496.061 45.512C496.829 45.0213 497.437 44.3493 497.885 43.496C498.333 42.6427 498.557 41.672 498.557 40.584C498.557 39.496 498.333 38.536 497.885 37.704C497.458 36.8507 496.861 36.1787 496.093 35.688C495.325 35.1973 494.439 34.952 493.437 34.952C492.434 34.952 491.549 35.1973 490.781 35.688C490.013 36.1573 489.405 36.8187 488.957 37.672C488.509 38.5253 488.285 39.496 488.285 40.584C488.285 41.672 488.509 42.6427 488.957 43.496C489.405 44.3493 490.013 45.0213 490.781 45.512C491.549 46.0027 492.434 46.248 493.437 46.248ZM507.384 49V27.912H510.68V49H507.384ZM503.896 35.4V32.2H514.584V35.4H503.896ZM524.981 49.32C523.338 49.32 521.866 48.9467 520.565 48.2C519.285 47.432 518.272 46.3973 517.525 45.096C516.778 43.7733 516.405 42.2693 516.405 40.584C516.405 38.8987 516.778 37.4053 517.525 36.104C518.272 34.7813 519.285 33.7467 520.565 33C521.866 32.232 523.338 31.848 524.981 31.848C526.602 31.848 528.053 32.232 529.333 33C530.634 33.7467 531.658 34.7813 532.405 36.104C533.152 37.4053 533.525 38.8987 533.525 40.584C533.525 42.2693 533.152 43.7733 532.405 45.096C531.658 46.3973 530.634 47.432 529.333 48.2C528.053 48.9467 526.602 49.32 524.981 49.32ZM524.981 46.312C525.984 46.312 526.88 46.0667 527.669 45.576C528.458 45.064 529.077 44.3813 529.525 43.528C529.973 42.6533 530.186 41.672 530.165 40.584C530.186 39.4747 529.973 38.4933 529.525 37.64C529.077 36.7653 528.458 36.0827 527.669 35.592C526.88 35.1013 525.984 34.856 524.981 34.856C523.978 34.856 523.072 35.112 522.261 35.624C521.472 36.1147 520.853 36.7973 520.405 37.672C519.957 38.5253 519.744 39.496 519.765 40.584C519.744 41.672 519.957 42.6533 520.405 43.528C520.853 44.3813 521.472 45.064 522.261 45.576C523.072 46.0667 523.978 46.312 524.981 46.312ZM537.117 56.04V32.2H540.445V36.04L539.933 35.752C540.061 35.112 540.423 34.504 541.021 33.928C541.618 33.3307 542.343 32.8507 543.197 32.488C544.071 32.104 544.967 31.912 545.885 31.912C547.399 31.912 548.743 32.2853 549.917 33.032C551.09 33.7787 552.018 34.8027 552.701 36.104C553.383 37.4053 553.725 38.8987 553.725 40.584C553.725 42.248 553.383 43.7413 552.701 45.064C552.039 46.3653 551.122 47.4 549.949 48.168C548.775 48.9147 547.453 49.288 545.981 49.288C544.999 49.288 544.05 49.096 543.133 48.712C542.215 48.3067 541.437 47.7947 540.797 47.176C540.157 46.5573 539.762 45.9173 539.613 45.256L540.445 44.808V56.04H537.117ZM545.437 46.248C546.418 46.248 547.293 46.0027 548.061 45.512C548.829 45.0213 549.437 44.3493 549.885 43.496C550.333 42.6427 550.557 41.672 550.557 40.584C550.557 39.496 550.333 38.536 549.885 37.704C549.458 36.8507 548.861 36.1787 548.093 35.688C547.325 35.1973 546.439 34.952 545.437 34.952C544.434 34.952 543.549 35.1973 542.781 35.688C542.013 36.1573 541.405 36.8187 540.957 37.672C540.509 38.5253 540.285 39.496 540.285 40.584C540.285 41.672 540.509 42.6427 540.957 43.496C541.405 44.3493 542.013 45.0213 542.781 45.512C543.549 46.0027 544.434 46.248 545.437 46.248ZM438.236 88.32C436.401 88.32 434.78 87.9573 433.372 87.232C431.985 86.5067 430.79 85.4187 429.788 83.968L432.156 81.248C433.201 82.7413 434.204 83.776 435.164 84.352C436.124 84.928 437.265 85.216 438.588 85.216C439.398 85.216 440.134 85.088 440.796 84.832C441.457 84.576 441.98 84.224 442.364 83.776C442.748 83.328 442.94 82.816 442.94 82.24C442.94 81.856 442.876 81.4933 442.748 81.152C442.62 80.8107 442.417 80.5013 442.14 80.224C441.884 79.9467 441.542 79.6907 441.116 79.456C440.71 79.2213 440.23 79.0187 439.676 78.848C439.121 78.656 438.481 78.496 437.756 78.368C436.604 78.1333 435.601 77.824 434.748 77.44C433.894 77.056 433.18 76.576 432.604 76C432.028 75.424 431.601 74.7733 431.324 74.048C431.046 73.3013 430.908 72.4693 430.908 71.552C430.908 70.336 431.249 69.2587 431.932 68.32C432.614 67.3813 433.532 66.6453 434.684 66.112C435.857 65.5573 437.169 65.28 438.62 65.28C440.348 65.28 441.852 65.6213 443.132 66.304C444.433 66.9653 445.457 67.936 446.204 69.216L443.772 71.616C443.132 70.5707 442.364 69.7707 441.468 69.216C440.593 68.6613 439.612 68.384 438.524 68.384C437.692 68.384 436.966 68.512 436.348 68.768C435.729 69.024 435.238 69.3867 434.876 69.856C434.534 70.304 434.364 70.8373 434.364 71.456C434.364 71.904 434.449 72.32 434.62 72.704C434.79 73.0667 435.046 73.3973 435.388 73.696C435.75 73.9733 436.23 74.2293 436.828 74.464C437.425 74.6773 438.14 74.8693 438.972 75.04C440.145 75.296 441.19 75.6267 442.108 76.032C443.025 76.416 443.804 76.8747 444.444 77.408C445.084 77.9413 445.564 78.5387 445.884 79.2C446.225 79.8613 446.396 80.576 446.396 81.344C446.396 82.7733 446.065 84.0107 445.404 85.056C444.742 86.1013 443.804 86.912 442.588 87.488C441.372 88.0427 439.921 88.32 438.236 88.32ZM458.012 88.32C456.37 88.32 454.898 87.9467 453.596 87.2C452.316 86.432 451.303 85.3973 450.556 84.096C449.81 82.7733 449.436 81.2693 449.436 79.584C449.436 77.8987 449.81 76.4053 450.556 75.104C451.303 73.7813 452.316 72.7467 453.596 72C454.898 71.232 456.37 70.848 458.012 70.848C459.634 70.848 461.084 71.232 462.364 72C463.666 72.7467 464.69 73.7813 465.436 75.104C466.183 76.4053 466.556 77.8987 466.556 79.584C466.556 81.2693 466.183 82.7733 465.436 84.096C464.69 85.3973 463.666 86.432 462.364 87.2C461.084 87.9467 459.634 88.32 458.012 88.32ZM458.012 85.312C459.015 85.312 459.911 85.0667 460.7 84.576C461.49 84.064 462.108 83.3813 462.556 82.528C463.004 81.6533 463.218 80.672 463.196 79.584C463.218 78.4747 463.004 77.4933 462.556 76.64C462.108 75.7653 461.49 75.0827 460.7 74.592C459.911 74.1013 459.015 73.856 458.012 73.856C457.01 73.856 456.103 74.112 455.292 74.624C454.503 75.1147 453.884 75.7973 453.436 76.672C452.988 77.5253 452.775 78.496 452.796 79.584C452.775 80.672 452.988 81.6533 453.436 82.528C453.884 83.3813 454.503 84.064 455.292 84.576C456.103 85.0667 457.01 85.312 458.012 85.312ZM470.212 88V64.32H473.508V88H470.212ZM483.911 88.32C482.716 88.32 481.671 88.0427 480.775 87.488C479.9 86.9333 479.217 86.1547 478.727 85.152C478.257 84.1493 478.023 82.9547 478.023 81.568V71.2H481.319V80.672C481.319 82.144 481.66 83.3067 482.343 84.16C483.047 85.0133 484.017 85.44 485.255 85.44C485.873 85.44 486.439 85.344 486.951 85.152C487.463 84.9387 487.9 84.6507 488.263 84.288C488.647 83.9253 488.945 83.488 489.159 82.976C489.372 82.464 489.479 81.9093 489.479 81.312V71.2H492.775V88H489.479V84.48L490.055 84.096C489.799 84.8853 489.361 85.6 488.743 86.24C488.145 86.88 487.431 87.392 486.599 87.776C485.767 88.1387 484.871 88.32 483.911 88.32ZM499.478 88V66.912H502.774V88H499.478ZM495.99 74.4V71.2H506.678V74.4H495.99ZM510.223 88V71.2H513.519V88H510.223ZM511.823 67.488C511.119 67.488 510.575 67.3067 510.191 66.944C509.807 66.5813 509.615 66.0693 509.615 65.408C509.615 64.7893 509.807 64.288 510.191 63.904C510.596 63.52 511.14 63.328 511.823 63.328C512.527 63.328 513.071 63.5093 513.455 63.872C513.839 64.2347 514.031 64.7467 514.031 65.408C514.031 66.0267 513.828 66.528 513.423 66.912C513.039 67.296 512.506 67.488 511.823 67.488ZM526.137 88.32C524.495 88.32 523.023 87.9467 521.721 87.2C520.441 86.432 519.428 85.3973 518.681 84.096C517.935 82.7733 517.561 81.2693 517.561 79.584C517.561 77.8987 517.935 76.4053 518.681 75.104C519.428 73.7813 520.441 72.7467 521.721 72C523.023 71.232 524.495 70.848 526.137 70.848C527.759 70.848 529.209 71.232 530.489 72C531.791 72.7467 532.815 73.7813 533.561 75.104C534.308 76.4053 534.681 77.8987 534.681 79.584C534.681 81.2693 534.308 82.7733 533.561 84.096C532.815 85.3973 531.791 86.432 530.489 87.2C529.209 87.9467 527.759 88.32 526.137 88.32ZM526.137 85.312C527.14 85.312 528.036 85.0667 528.825 84.576C529.615 84.064 530.233 83.3813 530.681 82.528C531.129 81.6533 531.343 80.672 531.321 79.584C531.343 78.4747 531.129 77.4933 530.681 76.64C530.233 75.7653 529.615 75.0827 528.825 74.592C528.036 74.1013 527.14 73.856 526.137 73.856C525.135 73.856 524.228 74.112 523.417 74.624C522.628 75.1147 522.009 75.7973 521.561 76.672C521.113 77.5253 520.9 78.496 520.921 79.584C520.9 80.672 521.113 81.6533 521.561 82.528C522.009 83.3813 522.628 84.064 523.417 84.576C524.228 85.0667 525.135 85.312 526.137 85.312ZM538.273 88V71.2H541.569V74.656L540.993 75.04C541.206 74.2933 541.622 73.6107 542.241 72.992C542.859 72.352 543.595 71.84 544.449 71.456C545.302 71.0507 546.177 70.848 547.073 70.848C548.353 70.848 549.419 71.104 550.273 71.616C551.126 72.1067 551.766 72.864 552.193 73.888C552.619 74.912 552.833 76.2027 552.833 77.76V88H549.537V77.984C549.537 77.024 549.409 76.2347 549.153 75.616C548.897 74.976 548.502 74.5173 547.969 74.24C547.435 73.9413 546.774 73.8133 545.985 73.856C545.345 73.856 544.758 73.9627 544.225 74.176C543.691 74.368 543.222 74.6453 542.817 75.008C542.433 75.3707 542.123 75.7973 541.889 76.288C541.675 76.7573 541.569 77.2693 541.569 77.824V88H539.937C539.659 88 539.382 88 539.105 88C538.827 88 538.55 88 538.273 88Z" fill="black"/>
</svg>
