<svg width="109" height="42" viewBox="0 0 109 42" fill="none" xmlns="http://www.w3.org/2000/svg">
<path d="M0.5 21C0.5 9.67816 9.67816 0.5 21 0.5H88C99.3218 0.5 108.5 9.67816 108.5 21C108.5 32.3218 99.3218 41.5 88 41.5H21C9.67816 41.5 0.5 32.3218 0.5 21Z" fill="white" stroke="#C5C5C5"/>
<path d="M23.233 25V14.8182H24.4659V19.8693H24.5852L29.1591 14.8182H30.7699L26.4943 19.4119L30.7699 25H29.2784L25.7386 20.267L24.4659 21.6989V25H23.233ZM34.8478 25.1591C34.112 25.1591 33.4773 24.9967 32.9437 24.6719C32.4134 24.3438 32.0041 23.8864 31.7157 23.2997C31.4307 22.7098 31.2882 22.0237 31.2882 21.2415C31.2882 20.4593 31.4307 19.7699 31.7157 19.1733C32.0041 18.5734 32.4051 18.1061 32.9189 17.7713C33.4359 17.4332 34.0391 17.2642 34.7285 17.2642C35.1262 17.2642 35.519 17.3305 35.9068 17.4631C36.2946 17.5956 36.6476 17.8111 36.9657 18.1094C37.2839 18.4044 37.5375 18.7955 37.7264 19.2827C37.9153 19.7699 38.0098 20.3698 38.0098 21.0824V21.5795H32.1234V20.5653H36.8166C36.8166 20.1345 36.7304 19.75 36.5581 19.4119C36.389 19.0739 36.1471 18.8071 35.8322 18.6115C35.5207 18.416 35.1528 18.3182 34.7285 18.3182C34.2612 18.3182 33.8568 18.4342 33.5154 18.6662C33.1774 18.8949 32.9172 19.1932 32.7349 19.5611C32.5526 19.929 32.4615 20.3234 32.4615 20.7443V21.4205C32.4615 21.9972 32.5609 22.486 32.7598 22.8871C32.9619 23.2848 33.242 23.5881 33.6 23.7969C33.9579 24.0024 34.3739 24.1051 34.8478 24.1051C35.1561 24.1051 35.4345 24.062 35.6831 23.9759C35.935 23.8864 36.152 23.7538 36.3343 23.5781C36.5166 23.3991 36.6575 23.1771 36.7569 22.9119L37.8904 23.2301C37.7711 23.6146 37.5706 23.9527 37.2889 24.2443C37.0072 24.5327 36.6592 24.758 36.2449 24.9205C35.8306 25.0795 35.3649 25.1591 34.8478 25.1591ZM40.3178 27.8636C40.119 27.8636 39.9416 27.8471 39.7859 27.8139C39.6301 27.7841 39.5224 27.7543 39.4627 27.7244L39.761 26.6903C40.046 26.7633 40.2979 26.7898 40.5167 26.7699C40.7354 26.75 40.9293 26.6522 41.0984 26.4766C41.2707 26.3042 41.4281 26.0241 41.5707 25.6364L41.7894 25.0398L38.9656 17.3636H40.2383L42.3462 23.4489H42.4258L44.5337 17.3636H45.8065L42.565 26.1136C42.4192 26.508 42.2385 26.8345 42.0231 27.093C41.8076 27.3549 41.5574 27.5488 41.2724 27.6747C40.9906 27.8007 40.6725 27.8636 40.3178 27.8636ZM47.5142 25V14.8182H48.6875V18.5767H48.7869C48.8731 18.4441 48.9924 18.2751 49.1449 18.0696C49.3007 17.8608 49.5227 17.6752 49.8111 17.5128C50.1027 17.3471 50.4972 17.2642 50.9943 17.2642C51.6373 17.2642 52.2041 17.425 52.6946 17.7464C53.1851 18.0679 53.5679 18.5237 53.843 19.1136C54.1181 19.7036 54.2557 20.3996 54.2557 21.2017C54.2557 22.0104 54.1181 22.7114 53.843 23.3047C53.5679 23.8946 53.1868 24.352 52.6996 24.6768C52.2124 24.9983 51.6506 25.1591 51.0142 25.1591C50.5237 25.1591 50.1309 25.0779 49.8359 24.9155C49.541 24.7498 49.3139 24.5625 49.1548 24.3537C48.9957 24.1416 48.8731 23.9659 48.7869 23.8267H48.6477V25H47.5142ZM48.6676 21.1818C48.6676 21.7585 48.7521 22.2673 48.9212 22.7081C49.0902 23.1456 49.3371 23.4886 49.6619 23.7372C49.9867 23.9825 50.3845 24.1051 50.8551 24.1051C51.3456 24.1051 51.755 23.9759 52.0831 23.7173C52.4145 23.4555 52.6631 23.1042 52.8288 22.6634C52.9979 22.2192 53.0824 21.7254 53.0824 21.1818C53.0824 20.6449 52.9995 20.161 52.8338 19.7301C52.6714 19.2959 52.4245 18.9529 52.093 18.701C51.7649 18.4458 51.3523 18.3182 50.8551 18.3182C50.3778 18.3182 49.9768 18.4392 49.652 18.6811C49.3272 18.9197 49.0819 19.2545 48.9162 19.6854C48.7505 20.1129 48.6676 20.6117 48.6676 21.1818ZM59.1527 25.1591C58.4633 25.1591 57.8584 24.995 57.3381 24.6669C56.821 24.3388 56.4167 23.8797 56.125 23.2898C55.8366 22.6998 55.6925 22.0104 55.6925 21.2216C55.6925 20.4261 55.8366 19.7318 56.125 19.1385C56.4167 18.5452 56.821 18.0845 57.3381 17.7564C57.8584 17.4283 58.4633 17.2642 59.1527 17.2642C59.8421 17.2642 60.4453 17.4283 60.9624 17.7564C61.4827 18.0845 61.8871 18.5452 62.1754 19.1385C62.4671 19.7318 62.6129 20.4261 62.6129 21.2216C62.6129 22.0104 62.4671 22.6998 62.1754 23.2898C61.8871 23.8797 61.4827 24.3388 60.9624 24.6669C60.4453 24.995 59.8421 25.1591 59.1527 25.1591ZM59.1527 24.1051C59.6764 24.1051 60.1072 23.9709 60.4453 23.7024C60.7834 23.4339 61.0336 23.081 61.196 22.6435C61.3584 22.206 61.4396 21.732 61.4396 21.2216C61.4396 20.7112 61.3584 20.2356 61.196 19.7947C61.0336 19.3539 60.7834 18.9976 60.4453 18.7259C60.1072 18.4541 59.6764 18.3182 59.1527 18.3182C58.629 18.3182 58.1982 18.4541 57.8601 18.7259C57.522 18.9976 57.2718 19.3539 57.1094 19.7947C56.947 20.2356 56.8658 20.7112 56.8658 21.2216C56.8658 21.732 56.947 22.206 57.1094 22.6435C57.2718 23.081 57.522 23.4339 57.8601 23.7024C58.1982 23.9709 58.629 24.1051 59.1527 24.1051ZM66.6511 25.179C66.1672 25.179 65.728 25.0878 65.3336 24.9055C64.9392 24.7199 64.626 24.4531 64.394 24.1051C64.162 23.7538 64.046 23.3295 64.046 22.8324C64.046 22.3949 64.1322 22.0402 64.3045 21.7685C64.4769 21.4934 64.7072 21.2779 64.9956 21.1222C65.2839 20.9664 65.6021 20.8504 65.9501 20.7741C66.3014 20.6946 66.6544 20.6316 67.0091 20.5852C67.4731 20.5256 67.8493 20.4808 68.1376 20.451C68.4293 20.4179 68.6414 20.3632 68.774 20.2869C68.9099 20.2107 68.9778 20.0781 68.9778 19.8892V19.8494C68.9778 19.3589 68.8436 18.9777 68.5751 18.706C68.31 18.4342 67.9073 18.2983 67.367 18.2983C66.8069 18.2983 66.3677 18.4209 66.0495 18.6662C65.7314 18.9115 65.5076 19.1733 65.3784 19.4517L64.2647 19.054C64.4636 18.59 64.7288 18.2287 65.0602 17.9702C65.3949 17.7083 65.7595 17.526 66.1539 17.4233C66.5517 17.3172 66.9428 17.2642 67.3272 17.2642C67.5725 17.2642 67.8542 17.294 68.1724 17.3537C68.4939 17.41 68.8038 17.5277 69.1021 17.7067C69.4037 17.8857 69.6539 18.1558 69.8528 18.517C70.0517 18.8783 70.1511 19.3622 70.1511 19.9688V25H68.9778V23.9659H68.9181C68.8386 24.1316 68.706 24.3089 68.5204 24.4979C68.3348 24.6868 68.0879 24.8475 67.7797 24.9801C67.4714 25.1127 67.0952 25.179 66.6511 25.179ZM66.8301 24.125C67.2941 24.125 67.6852 24.0339 68.0034 23.8516C68.3249 23.6693 68.5668 23.4339 68.7292 23.1456C68.8949 22.8572 68.9778 22.554 68.9778 22.2358V21.1619C68.9281 21.2216 68.8187 21.2763 68.6497 21.326C68.484 21.3724 68.2917 21.4138 68.073 21.4503C67.8575 21.4834 67.6471 21.5133 67.4416 21.5398C67.2394 21.563 67.0753 21.5829 66.9494 21.5994C66.6445 21.6392 66.3594 21.7038 66.0943 21.7933C65.8324 21.8795 65.6203 22.0104 65.4579 22.1861C65.2988 22.3584 65.2193 22.5937 65.2193 22.892C65.2193 23.2997 65.3701 23.608 65.6717 23.8168C65.9766 24.0223 66.3627 24.125 66.8301 24.125ZM72.2926 25V17.3636H73.4261V18.517H73.5057C73.6449 18.1392 73.8968 17.8326 74.2614 17.5973C74.6259 17.362 75.0369 17.2443 75.4943 17.2443C75.5805 17.2443 75.6882 17.246 75.8175 17.2493C75.9467 17.2526 76.0445 17.2576 76.1108 17.2642V18.4574C76.071 18.4474 75.9799 18.4325 75.8374 18.4126C75.6982 18.3894 75.5507 18.3778 75.3949 18.3778C75.0237 18.3778 74.6922 18.4557 74.4006 18.6115C74.1122 18.764 73.8835 18.9761 73.7145 19.2479C73.5488 19.5163 73.4659 19.8229 73.4659 20.1676V25H72.2926ZM80.1527 25.1591C79.5163 25.1591 78.9545 24.9983 78.4673 24.6768C77.9801 24.352 77.599 23.8946 77.3239 23.3047C77.0488 22.7114 76.9112 22.0104 76.9112 21.2017C76.9112 20.3996 77.0488 19.7036 77.3239 19.1136C77.599 18.5237 77.9818 18.0679 78.4723 17.7464C78.9628 17.425 79.5296 17.2642 80.1726 17.2642C80.6697 17.2642 81.0625 17.3471 81.3509 17.5128C81.6425 17.6752 81.8646 17.8608 82.017 18.0696C82.1728 18.2751 82.2938 18.4441 82.38 18.5767H82.4794V14.8182H83.6527V25H82.5192V23.8267H82.38C82.2938 23.9659 82.1712 24.1416 82.0121 24.3537C81.853 24.5625 81.6259 24.7498 81.331 24.9155C81.036 25.0779 80.6432 25.1591 80.1527 25.1591ZM80.3118 24.1051C80.7824 24.1051 81.1802 23.9825 81.505 23.7372C81.8298 23.4886 82.0767 23.1456 82.2457 22.7081C82.4148 22.2673 82.4993 21.7585 82.4993 21.1818C82.4993 20.6117 82.4164 20.1129 82.2507 19.6854C82.085 19.2545 81.8397 18.9197 81.5149 18.6811C81.1901 18.4392 80.7891 18.3182 80.3118 18.3182C79.8146 18.3182 79.4003 18.4458 79.0689 18.701C78.7408 18.9529 78.4938 19.2959 78.3281 19.7301C78.1657 20.161 78.0845 20.6449 78.0845 21.1818C78.0845 21.7254 78.1674 22.2192 78.3331 22.6634C78.5021 23.1042 78.7507 23.4555 79.0788 23.7173C79.4103 23.9759 79.8213 24.1051 80.3118 24.1051Z" fill="black"/>
</svg>
