<svg width="90" height="42" viewBox="0 0 90 42" fill="none" xmlns="http://www.w3.org/2000/svg">
<path d="M0.5 21C0.5 9.67816 9.67816 0.5 21 0.5H69C80.3218 0.5 89.5 9.67816 89.5 21C89.5 32.3218 80.3218 41.5 69 41.5H21C9.67816 41.5 0.5 32.3218 0.5 21Z" fill="white" stroke="#C5C5C5"/>
<path d="M23.0739 25V17.3636H24.2472V25H23.0739ZM23.6705 16.0909C23.4418 16.0909 23.2446 16.013 23.0788 15.8572C22.9164 15.7015 22.8352 15.5142 22.8352 15.2955C22.8352 15.0767 22.9164 14.8894 23.0788 14.7337C23.2446 14.5779 23.4418 14.5 23.6705 14.5C23.8991 14.5 24.0947 14.5779 24.2571 14.7337C24.4228 14.8894 24.5057 15.0767 24.5057 15.2955C24.5057 15.5142 24.4228 15.7015 24.2571 15.8572C24.0947 16.013 23.8991 16.0909 23.6705 16.0909ZM26.5552 25V14.8182H29.9956C30.7943 14.8182 31.4473 14.9624 31.9544 15.2507C32.4648 15.5357 32.8426 15.9219 33.0879 16.4091C33.3332 16.8963 33.4558 17.4399 33.4558 18.0398C33.4558 18.6397 33.3332 19.1849 33.0879 19.6754C32.8459 20.166 32.4714 20.5571 31.9643 20.8487C31.4572 21.1371 30.8076 21.2812 30.0154 21.2812H27.5495V20.1875H29.9757C30.5225 20.1875 30.9617 20.093 31.2931 19.9041C31.6246 19.7152 31.8649 19.46 32.014 19.1385C32.1665 18.8137 32.2427 18.4474 32.2427 18.0398C32.2427 17.6321 32.1665 17.2675 32.014 16.946C31.8649 16.6245 31.6229 16.3726 31.2882 16.1903C30.9534 16.0047 30.5093 15.9119 29.9558 15.9119H27.7882V25H26.5552ZM36.4561 20.4062V25H35.2828V14.8182H36.4561V18.5568H36.5556C36.7346 18.1624 37.003 17.8492 37.361 17.6172C37.7222 17.3819 38.2028 17.2642 38.8027 17.2642C39.3231 17.2642 39.7788 17.3686 40.1699 17.5774C40.561 17.7829 40.8643 18.0994 41.0797 18.527C41.2985 18.9512 41.4078 19.4915 41.4078 20.1477V25H40.2346V20.2273C40.2346 19.6207 40.0771 19.1518 39.7623 18.8203C39.4507 18.4856 39.0182 18.3182 38.4647 18.3182C38.0802 18.3182 37.7355 18.3994 37.4306 18.5618C37.129 18.7242 36.8903 18.9612 36.7147 19.2727C36.5423 19.5843 36.4561 19.9621 36.4561 20.4062ZM46.6566 25.1591C45.9672 25.1591 45.3623 24.995 44.842 24.6669C44.3249 24.3388 43.9206 23.8797 43.6289 23.2898C43.3406 22.6998 43.1964 22.0104 43.1964 21.2216C43.1964 20.4261 43.3406 19.7318 43.6289 19.1385C43.9206 18.5452 44.3249 18.0845 44.842 17.7564C45.3623 17.4283 45.9672 17.2642 46.6566 17.2642C47.346 17.2642 47.9492 17.4283 48.4663 17.7564C48.9866 18.0845 49.391 18.5452 49.6793 19.1385C49.971 19.7318 50.1168 20.4261 50.1168 21.2216C50.1168 22.0104 49.971 22.6998 49.6793 23.2898C49.391 23.8797 48.9866 24.3388 48.4663 24.6669C47.9492 24.995 47.346 25.1591 46.6566 25.1591ZM46.6566 24.1051C47.1803 24.1051 47.6112 23.9709 47.9492 23.7024C48.2873 23.4339 48.5375 23.081 48.6999 22.6435C48.8623 22.206 48.9435 21.732 48.9435 21.2216C48.9435 20.7112 48.8623 20.2356 48.6999 19.7947C48.5375 19.3539 48.2873 18.9976 47.9492 18.7259C47.6112 18.4541 47.1803 18.3182 46.6566 18.3182C46.1329 18.3182 45.7021 18.4541 45.364 18.7259C45.0259 18.9976 44.7757 19.3539 44.6133 19.7947C44.4509 20.2356 44.3697 20.7112 44.3697 21.2216C44.3697 21.732 44.4509 22.206 44.6133 22.6435C44.7757 23.081 45.0259 23.4339 45.364 23.7024C45.7021 23.9709 46.1329 24.1051 46.6566 24.1051ZM53.0811 20.4062V25H51.9078V17.3636H53.0414V18.5568H53.1408C53.3198 18.169 53.5916 17.8575 53.9561 17.6222C54.3207 17.3835 54.7914 17.2642 55.3681 17.2642C55.8851 17.2642 56.3375 17.3703 56.7253 17.5824C57.1131 17.7912 57.4147 18.1094 57.6301 18.5369C57.8456 18.9612 57.9533 19.4981 57.9533 20.1477V25H56.78V20.2273C56.78 19.6274 56.6242 19.16 56.3127 18.8253C56.0011 18.4872 55.5736 18.3182 55.03 18.3182C54.6555 18.3182 54.3207 18.3994 54.0257 18.5618C53.7341 18.7242 53.5037 18.9612 53.3347 19.2727C53.1657 19.5843 53.0811 19.9621 53.0811 20.4062ZM63.299 25.1591C62.5632 25.1591 61.9285 24.9967 61.3949 24.6719C60.8646 24.3438 60.4553 23.8864 60.1669 23.2997C59.8819 22.7098 59.7393 22.0237 59.7393 21.2415C59.7393 20.4593 59.8819 19.7699 60.1669 19.1733C60.4553 18.5734 60.8563 18.1061 61.37 17.7713C61.8871 17.4332 62.4903 17.2642 63.1797 17.2642C63.5774 17.2642 63.9702 17.3305 64.358 17.4631C64.7457 17.5956 65.0987 17.8111 65.4169 18.1094C65.7351 18.4044 65.9886 18.7955 66.1776 19.2827C66.3665 19.7699 66.4609 20.3698 66.4609 21.0824V21.5795H60.5746V20.5653H65.2678C65.2678 20.1345 65.1816 19.75 65.0092 19.4119C64.8402 19.0739 64.5982 18.8071 64.2834 18.6115C63.9718 18.416 63.6039 18.3182 63.1797 18.3182C62.7124 18.3182 62.308 18.4342 61.9666 18.6662C61.6286 18.8949 61.3684 19.1932 61.1861 19.5611C61.0038 19.929 60.9126 20.3234 60.9126 20.7443V21.4205C60.9126 21.9972 61.0121 22.486 61.2109 22.8871C61.4131 23.2848 61.6932 23.5881 62.0511 23.7969C62.4091 24.0024 62.825 24.1051 63.299 24.1051C63.6072 24.1051 63.8857 24.062 64.1342 23.9759C64.3861 23.8864 64.6032 23.7538 64.7855 23.5781C64.9678 23.3991 65.1087 23.1771 65.2081 22.9119L66.3416 23.2301C66.2223 23.6146 66.0218 23.9527 65.7401 24.2443C65.4583 24.5327 65.1103 24.758 64.696 24.9205C64.2817 25.0795 63.8161 25.1591 63.299 25.1591Z" fill="black"/>
</svg>
