<svg width="91" height="42" viewBox="0 0 91 42" fill="none" xmlns="http://www.w3.org/2000/svg">
<path d="M0.5 21C0.5 9.67816 9.67816 0.5 21 0.5H70C81.3218 0.5 90.5 9.67816 90.5 21C90.5 32.3218 81.3218 41.5 70 41.5H21C9.67816 41.5 0.5 32.3218 0.5 21Z" fill="white" stroke="#C5C5C5"/>
<path d="M23.233 25V14.8182H24.4659V23.9062H29.1989V25H23.233ZM33.196 25.179C32.7121 25.179 32.273 25.0878 31.8786 24.9055C31.4841 24.7199 31.1709 24.4531 30.9389 24.1051C30.7069 23.7538 30.5909 23.3295 30.5909 22.8324C30.5909 22.3949 30.6771 22.0402 30.8494 21.7685C31.0218 21.4934 31.2521 21.2779 31.5405 21.1222C31.8288 20.9664 32.147 20.8504 32.495 20.7741C32.8464 20.6946 33.1993 20.6316 33.554 20.5852C34.018 20.5256 34.3942 20.4808 34.6825 20.451C34.9742 20.4179 35.1863 20.3632 35.3189 20.2869C35.4548 20.2107 35.5227 20.0781 35.5227 19.8892V19.8494C35.5227 19.3589 35.3885 18.9777 35.12 18.706C34.8549 18.4342 34.4522 18.2983 33.9119 18.2983C33.3518 18.2983 32.9126 18.4209 32.5945 18.6662C32.2763 18.9115 32.0526 19.1733 31.9233 19.4517L30.8097 19.054C31.0085 18.59 31.2737 18.2287 31.6051 17.9702C31.9399 17.7083 32.3045 17.526 32.6989 17.4233C33.0966 17.3172 33.4877 17.2642 33.8722 17.2642C34.1174 17.2642 34.3991 17.294 34.7173 17.3537C35.0388 17.41 35.3487 17.5277 35.647 17.7067C35.9486 17.8857 36.1989 18.1558 36.3977 18.517C36.5966 18.8783 36.696 19.3622 36.696 19.9688V25H35.5227V23.9659H35.4631C35.3835 24.1316 35.2509 24.3089 35.0653 24.4979C34.8797 24.6868 34.6328 24.8475 34.3246 24.9801C34.0163 25.1127 33.6402 25.179 33.196 25.179ZM33.375 24.125C33.839 24.125 34.2301 24.0339 34.5483 23.8516C34.8698 23.6693 35.1117 23.4339 35.2741 23.1456C35.4399 22.8572 35.5227 22.554 35.5227 22.2358V21.1619C35.473 21.2216 35.3636 21.2763 35.1946 21.326C35.0289 21.3724 34.8366 21.4138 34.6179 21.4503C34.4025 21.4834 34.192 21.5133 33.9865 21.5398C33.7843 21.563 33.6203 21.5829 33.4943 21.5994C33.1894 21.6392 32.9044 21.7038 32.6392 21.7933C32.3774 21.8795 32.1652 22.0104 32.0028 22.1861C31.8438 22.3584 31.7642 22.5937 31.7642 22.892C31.7642 23.2997 31.915 23.608 32.2166 23.8168C32.5215 24.0223 32.9077 24.125 33.375 24.125ZM38.8375 27.8636V17.3636H39.9711V18.5767H40.1103C40.1964 18.4441 40.3158 18.2751 40.4682 18.0696C40.624 17.8608 40.8461 17.6752 41.1344 17.5128C41.4261 17.3471 41.8205 17.2642 42.3176 17.2642C42.9606 17.2642 43.5274 17.425 44.0179 17.7464C44.5085 18.0679 44.8913 18.5237 45.1664 19.1136C45.4415 19.7036 45.579 20.3996 45.579 21.2017C45.579 22.0104 45.4415 22.7114 45.1664 23.3047C44.8913 23.8946 44.5101 24.352 44.0229 24.6768C43.5357 24.9983 42.9739 25.1591 42.3375 25.1591C41.847 25.1591 41.4542 25.0779 41.1593 24.9155C40.8643 24.7498 40.6373 24.5625 40.4782 24.3537C40.3191 24.1416 40.1964 23.9659 40.1103 23.8267H40.0108V27.8636H38.8375ZM39.9909 21.1818C39.9909 21.7585 40.0755 22.2673 40.2445 22.7081C40.4135 23.1456 40.6605 23.4886 40.9853 23.7372C41.3101 23.9825 41.7078 24.1051 42.1784 24.1051C42.669 24.1051 43.0783 23.9759 43.4064 23.7173C43.7379 23.4555 43.9864 23.1042 44.1522 22.6634C44.3212 22.2192 44.4057 21.7254 44.4057 21.1818C44.4057 20.6449 44.3229 20.161 44.1571 19.7301C43.9947 19.2959 43.7478 18.9529 43.4164 18.701C43.0882 18.4458 42.6756 18.3182 42.1784 18.3182C41.7012 18.3182 41.3001 18.4392 40.9753 18.6811C40.6505 18.9197 40.4052 19.2545 40.2395 19.6854C40.0738 20.1129 39.9909 20.6117 39.9909 21.1818ZM50.6898 17.3636V18.358H46.7324V17.3636H50.6898ZM47.8858 15.5341H49.0591V22.8125C49.0591 23.1439 49.1072 23.3925 49.2033 23.5582C49.3027 23.7206 49.4287 23.83 49.5811 23.8864C49.7369 23.9394 49.901 23.9659 50.0733 23.9659C50.2026 23.9659 50.3087 23.9593 50.3915 23.946C50.4744 23.9295 50.5407 23.9162 50.5904 23.9062L50.829 24.9602C50.7495 24.9901 50.6384 25.0199 50.4959 25.0497C50.3534 25.0829 50.1728 25.0994 49.954 25.0994C49.6226 25.0994 49.2978 25.0282 48.9796 24.8857C48.6647 24.7431 48.4029 24.526 48.1941 24.2344C47.9886 23.9427 47.8858 23.5748 47.8858 23.1307V15.5341ZM55.475 25.1591C54.7856 25.1591 54.1807 24.995 53.6603 24.6669C53.1433 24.3388 52.7389 23.8797 52.4473 23.2898C52.1589 22.6998 52.0147 22.0104 52.0147 21.2216C52.0147 20.4261 52.1589 19.7318 52.4473 19.1385C52.7389 18.5452 53.1433 18.0845 53.6603 17.7564C54.1807 17.4283 54.7856 17.2642 55.475 17.2642C56.1644 17.2642 56.7676 17.4283 57.2846 17.7564C57.805 18.0845 58.2093 18.5452 58.4977 19.1385C58.7894 19.7318 58.9352 20.4261 58.9352 21.2216C58.9352 22.0104 58.7894 22.6998 58.4977 23.2898C58.2093 23.8797 57.805 24.3388 57.2846 24.6669C56.7676 24.995 56.1644 25.1591 55.475 25.1591ZM55.475 24.1051C55.9986 24.1051 56.4295 23.9709 56.7676 23.7024C57.1056 23.4339 57.3559 23.081 57.5183 22.6435C57.6807 22.206 57.7619 21.732 57.7619 21.2216C57.7619 20.7112 57.6807 20.2356 57.5183 19.7947C57.3559 19.3539 57.1056 18.9976 56.7676 18.7259C56.4295 18.4541 55.9986 18.3182 55.475 18.3182C54.9513 18.3182 54.5204 18.4541 54.1824 18.7259C53.8443 18.9976 53.594 19.3539 53.4316 19.7947C53.2692 20.2356 53.188 20.7112 53.188 21.2216C53.188 21.732 53.2692 22.206 53.4316 22.6435C53.594 23.081 53.8443 23.4339 54.1824 23.7024C54.5204 23.9709 54.9513 24.1051 55.475 24.1051ZM60.7262 27.8636V17.3636H61.8597V18.5767H61.9989C62.0851 18.4441 62.2044 18.2751 62.3569 18.0696C62.5127 17.8608 62.7347 17.6752 63.0231 17.5128C63.3147 17.3471 63.7092 17.2642 64.2063 17.2642C64.8493 17.2642 65.4161 17.425 65.9066 17.7464C66.3971 18.0679 66.7799 18.5237 67.055 19.1136C67.3301 19.7036 67.4677 20.3996 67.4677 21.2017C67.4677 22.0104 67.3301 22.7114 67.055 23.3047C66.7799 23.8946 66.3988 24.352 65.9116 24.6768C65.4244 24.9983 64.8626 25.1591 64.2262 25.1591C63.7357 25.1591 63.3429 25.0779 63.0479 24.9155C62.753 24.7498 62.5259 24.5625 62.3668 24.3537C62.2077 24.1416 62.0851 23.9659 61.9989 23.8267H61.8995V27.8636H60.7262ZM61.8796 21.1818C61.8796 21.7585 61.9641 22.2673 62.1332 22.7081C62.3022 23.1456 62.5491 23.4886 62.8739 23.7372C63.1987 23.9825 63.5965 24.1051 64.0671 24.1051C64.5576 24.1051 64.967 23.9759 65.2951 23.7173C65.6265 23.4555 65.8751 23.1042 66.0408 22.6634C66.2099 22.2192 66.2944 21.7254 66.2944 21.1818C66.2944 20.6449 66.2115 20.161 66.0458 19.7301C65.8834 19.2959 65.6365 18.9529 65.305 18.701C64.9769 18.4458 64.5643 18.3182 64.0671 18.3182C63.5898 18.3182 63.1888 18.4392 62.864 18.6811C62.5392 18.9197 62.2939 19.2545 62.1282 19.6854C61.9625 20.1129 61.8796 20.6117 61.8796 21.1818Z" fill="black"/>
</svg>
