<svg width="68" height="42" viewBox="0 0 68 42" fill="none" xmlns="http://www.w3.org/2000/svg">
<path d="M0.5 21C0.5 9.67816 9.67816 0.5 21 0.5H47C58.3218 0.5 67.5 9.67816 67.5 21C67.5 32.3218 58.3218 41.5 47 41.5H21C9.67816 41.5 0.5 32.3218 0.5 21Z" fill="white" stroke="#C5C5C5"/>
<path d="M29.608 18.5C29.5064 18.1892 29.3725 17.9106 29.2063 17.6644C29.0432 17.4151 28.8478 17.2028 28.62 17.0273C28.3954 16.8519 28.1399 16.718 27.8537 16.6257C27.5675 16.5334 27.2536 16.4872 26.9119 16.4872C26.3518 16.4872 25.8424 16.6319 25.3839 16.9212C24.9253 17.2105 24.5606 17.6367 24.2898 18.1999C24.0189 18.7631 23.8835 19.4541 23.8835 20.2727C23.8835 21.0914 24.0205 21.7823 24.2944 22.3455C24.5683 22.9087 24.9392 23.335 25.407 23.6243C25.8748 23.9136 26.401 24.0582 26.9858 24.0582C27.5275 24.0582 28.0045 23.9428 28.4169 23.712C28.8324 23.4781 29.1555 23.1488 29.3864 22.7241C29.6203 22.2963 29.7372 21.7931 29.7372 21.2145L30.0881 21.2884H27.2443V20.2727H30.8452V21.2884C30.8452 22.067 30.679 22.7441 30.3466 23.3196C30.0173 23.8951 29.5618 24.3414 28.9801 24.6584C28.4015 24.9723 27.7367 25.1293 26.9858 25.1293C26.1487 25.1293 25.4131 24.9323 24.7791 24.5384C24.1482 24.1444 23.6558 23.5843 23.3018 22.858C22.951 22.1316 22.7756 21.2699 22.7756 20.2727C22.7756 19.5249 22.8756 18.8524 23.0756 18.2553C23.2788 17.6552 23.565 17.1443 23.9343 16.7227C24.3036 16.301 24.7406 15.9779 25.2454 15.7532C25.7501 15.5285 26.3056 15.4162 26.9119 15.4162C27.4105 15.4162 27.8752 15.4916 28.3061 15.6424C28.7401 15.7901 29.1263 16.0009 29.4648 16.2749C29.8065 16.5457 30.0911 16.8704 30.3189 17.2489C30.5466 17.6244 30.7036 18.0414 30.7898 18.5H29.608ZM33.1026 25V17.9091H34.1921V25H33.1026ZM33.6566 16.7273C33.4442 16.7273 33.2611 16.6549 33.1072 16.5103C32.9564 16.3656 32.881 16.1918 32.881 15.9886C32.881 15.7855 32.9564 15.6116 33.1072 15.467C33.2611 15.3223 33.4442 15.25 33.6566 15.25C33.869 15.25 34.0505 15.3223 34.2013 15.467C34.3552 15.6116 34.4322 15.7855 34.4322 15.9886C34.4322 16.1918 34.3552 16.3656 34.2013 16.5103C34.0505 16.6549 33.869 16.7273 33.6566 16.7273ZM39.3453 17.9091V18.8324H35.5228V17.9091H39.3453ZM36.6677 25V16.9304C36.6677 16.5241 36.7631 16.1856 36.9539 15.9148C37.1447 15.6439 37.3925 15.4408 37.6972 15.3054C38.0019 15.17 38.3235 15.1023 38.662 15.1023C38.9298 15.1023 39.1483 15.1238 39.3176 15.1669C39.4868 15.21 39.613 15.25 39.6961 15.2869L39.3822 16.2287C39.3268 16.2102 39.2499 16.1871 39.1514 16.1594C39.056 16.1317 38.9298 16.1179 38.7728 16.1179C38.4127 16.1179 38.1527 16.2087 37.9926 16.3903C37.8357 16.5719 37.7572 16.8381 37.7572 17.1889V25H36.6677ZM43.956 17.9091V18.8324H40.2812V17.9091H43.956ZM41.3523 16.2102H42.4418V22.9688C42.4418 23.2765 42.4864 23.5073 42.5756 23.6612C42.668 23.812 42.7849 23.9136 42.9265 23.9659C43.0711 24.0152 43.2235 24.0398 43.3835 24.0398C43.5036 24.0398 43.602 24.0336 43.679 24.0213C43.7559 24.0059 43.8175 23.9936 43.8636 23.9844L44.0852 24.9631C44.0114 24.9908 43.9083 25.0185 43.7759 25.0462C43.6436 25.0769 43.4759 25.0923 43.2727 25.0923C42.965 25.0923 42.6634 25.0262 42.3679 24.8938C42.0755 24.7615 41.8324 24.5599 41.6385 24.2891C41.4477 24.0182 41.3523 23.6766 41.3523 23.2642V16.2102Z" fill="black"/>
</svg>
