<svg width="89" height="42" viewBox="0 0 89 42" fill="none" xmlns="http://www.w3.org/2000/svg">
<path d="M0.5 21C0.5 9.67816 9.67816 0.5 21 0.5H68C79.3218 0.5 88.5 9.67816 88.5 21C88.5 32.3218 79.3218 41.5 68 41.5H21C9.67816 41.5 0.5 32.3218 0.5 21Z" fill="white" stroke="#C5C5C5"/>
<path d="M23.233 14.8182H24.7045L28.1648 23.2699H28.2841L31.7443 14.8182H33.2159V25H32.0625V17.2642H31.9631L28.7812 25H27.6676L24.4858 17.2642H24.3864V25H23.233V14.8182ZM38.6312 25.1591C37.9418 25.1591 37.3369 24.995 36.8166 24.6669C36.2995 24.3388 35.8952 23.8797 35.6035 23.2898C35.3152 22.6998 35.171 22.0104 35.171 21.2216C35.171 20.4261 35.3152 19.7318 35.6035 19.1385C35.8952 18.5452 36.2995 18.0845 36.8166 17.7564C37.3369 17.4283 37.9418 17.2642 38.6312 17.2642C39.3206 17.2642 39.9238 17.4283 40.4409 17.7564C40.9612 18.0845 41.3656 18.5452 41.6539 19.1385C41.9456 19.7318 42.0914 20.4261 42.0914 21.2216C42.0914 22.0104 41.9456 22.6998 41.6539 23.2898C41.3656 23.8797 40.9612 24.3388 40.4409 24.6669C39.9238 24.995 39.3206 25.1591 38.6312 25.1591ZM38.6312 24.1051C39.1549 24.1051 39.5858 23.9709 39.9238 23.7024C40.2619 23.4339 40.5121 23.081 40.6745 22.6435C40.8369 22.206 40.9181 21.732 40.9181 21.2216C40.9181 20.7112 40.8369 20.2356 40.6745 19.7947C40.5121 19.3539 40.2619 18.9976 39.9238 18.7259C39.5858 18.4541 39.1549 18.3182 38.6312 18.3182C38.1075 18.3182 37.6767 18.4541 37.3386 18.7259C37.0005 18.9976 36.7503 19.3539 36.5879 19.7947C36.4255 20.2356 36.3443 20.7112 36.3443 21.2216C36.3443 21.732 36.4255 22.206 36.5879 22.6435C36.7503 23.081 37.0005 23.4339 37.3386 23.7024C37.6767 23.9709 38.1075 24.1051 38.6312 24.1051ZM44.0415 25V14.8182H45.2148V18.5767H45.3143C45.4004 18.4441 45.5198 18.2751 45.6722 18.0696C45.828 17.8608 46.0501 17.6752 46.3384 17.5128C46.6301 17.3471 47.0245 17.2642 47.5217 17.2642C48.1647 17.2642 48.7314 17.425 49.2219 17.7464C49.7125 18.0679 50.0953 18.5237 50.3704 19.1136C50.6455 19.7036 50.783 20.3996 50.783 21.2017C50.783 22.0104 50.6455 22.7114 50.3704 23.3047C50.0953 23.8946 49.7141 24.352 49.2269 24.6768C48.7397 24.9983 48.1779 25.1591 47.5415 25.1591C47.051 25.1591 46.6583 25.0779 46.3633 24.9155C46.0683 24.7498 45.8413 24.5625 45.6822 24.3537C45.5231 24.1416 45.4004 23.9659 45.3143 23.8267H45.1751V25H44.0415ZM45.195 21.1818C45.195 21.7585 45.2795 22.2673 45.4485 22.7081C45.6175 23.1456 45.8645 23.4886 46.1893 23.7372C46.5141 23.9825 46.9118 24.1051 47.3825 24.1051C47.873 24.1051 48.2823 23.9759 48.6104 23.7173C48.9419 23.4555 49.1905 23.1042 49.3562 22.6634C49.5252 22.2192 49.6097 21.7254 49.6097 21.1818C49.6097 20.6449 49.5269 20.161 49.3612 19.7301C49.1987 19.2959 48.9518 18.9529 48.6204 18.701C48.2923 18.4458 47.8796 18.3182 47.3825 18.3182C46.9052 18.3182 46.5041 18.4392 46.1793 18.6811C45.8545 18.9197 45.6093 19.2545 45.4435 19.6854C45.2778 20.1129 45.195 20.6117 45.195 21.1818ZM52.5778 25V17.3636H53.7511V25H52.5778ZM53.1744 16.0909C52.9457 16.0909 52.7485 16.013 52.5827 15.8572C52.4203 15.7015 52.3391 15.5142 52.3391 15.2955C52.3391 15.0767 52.4203 14.8894 52.5827 14.7337C52.7485 14.5779 52.9457 14.5 53.1744 14.5C53.4031 14.5 53.5986 14.5779 53.761 14.7337C53.9267 14.8894 54.0096 15.0767 54.0096 15.2955C54.0096 15.5142 53.9267 15.7015 53.761 15.8572C53.5986 16.013 53.4031 16.0909 53.1744 16.0909ZM57.0733 14.8182V25H55.9V14.8182H57.0733ZM62.424 25.1591C61.6882 25.1591 61.0535 24.9967 60.5199 24.6719C59.9896 24.3438 59.5803 23.8864 59.2919 23.2997C59.0069 22.7098 58.8643 22.0237 58.8643 21.2415C58.8643 20.4593 59.0069 19.7699 59.2919 19.1733C59.5803 18.5734 59.9813 18.1061 60.495 17.7713C61.0121 17.4332 61.6153 17.2642 62.3047 17.2642C62.7024 17.2642 63.0952 17.3305 63.483 17.4631C63.8707 17.5956 64.2237 17.8111 64.5419 18.1094C64.8601 18.4044 65.1136 18.7955 65.3026 19.2827C65.4915 19.7699 65.5859 20.3698 65.5859 21.0824V21.5795H59.6996V20.5653H64.3928C64.3928 20.1345 64.3066 19.75 64.1342 19.4119C63.9652 19.0739 63.7232 18.8071 63.4084 18.6115C63.0968 18.416 62.7289 18.3182 62.3047 18.3182C61.8374 18.3182 61.433 18.4342 61.0916 18.6662C60.7536 18.8949 60.4934 19.1932 60.3111 19.5611C60.1288 19.929 60.0376 20.3234 60.0376 20.7443V21.4205C60.0376 21.9972 60.1371 22.486 60.3359 22.8871C60.5381 23.2848 60.8182 23.5881 61.1761 23.7969C61.5341 24.0024 61.95 24.1051 62.424 24.1051C62.7322 24.1051 63.0107 24.062 63.2592 23.9759C63.5111 23.8864 63.7282 23.7538 63.9105 23.5781C64.0928 23.3991 64.2337 23.1771 64.3331 22.9119L65.4666 23.2301C65.3473 23.6146 65.1468 23.9527 64.8651 24.2443C64.5833 24.5327 64.2353 24.758 63.821 24.9205C63.4067 25.0795 62.9411 25.1591 62.424 25.1591Z" fill="black"/>
</svg>
