<svg width="118" height="42" viewBox="0 0 118 42" fill="none" xmlns="http://www.w3.org/2000/svg">
<path d="M0.5 21C0.5 9.67816 9.67816 0.5 21 0.5H97C108.322 0.5 117.5 9.67816 117.5 21C117.5 32.3218 108.322 41.5 97 41.5H21C9.67816 41.5 0.5 32.3218 0.5 21Z" fill="white" stroke="#C5C5C5"/>
<path d="M26.6335 14.8182V25H25.4006V16.1108H25.3409L22.8551 17.7614V16.5085L25.4006 14.8182H26.6335ZM33.0021 25.1392C32.3459 25.1392 31.7609 25.0265 31.2472 24.8011C30.7367 24.5758 30.3307 24.2625 30.0291 23.8615C29.7308 23.4571 29.5684 22.9882 29.5419 22.4545H30.7947C30.8213 22.7827 30.9339 23.0661 31.1328 23.3047C31.3317 23.54 31.5919 23.7223 31.9134 23.8516C32.2348 23.9808 32.5911 24.0455 32.9822 24.0455C33.4197 24.0455 33.8075 23.9692 34.1456 23.8168C34.4837 23.6643 34.7488 23.4522 34.9411 23.1804C35.1333 22.9086 35.2294 22.5938 35.2294 22.2358C35.2294 21.8613 35.1366 21.5315 34.951 21.2464C34.7654 20.9581 34.4936 20.7327 34.1357 20.5703C33.7777 20.4079 33.3402 20.3267 32.8232 20.3267H32.0078V19.233H32.8232C33.2275 19.233 33.5821 19.16 33.8871 19.0142C34.1953 18.8684 34.4356 18.6629 34.608 18.3977C34.7836 18.1326 34.8714 17.821 34.8714 17.4631C34.8714 17.1184 34.7952 16.8184 34.6428 16.5632C34.4903 16.308 34.2749 16.1091 33.9964 15.9666C33.7214 15.8241 33.3965 15.7528 33.022 15.7528C32.6707 15.7528 32.3393 15.8175 32.0277 15.9467C31.7195 16.0727 31.4676 16.2566 31.272 16.4986C31.0765 16.7372 30.9704 17.0256 30.9538 17.3636H29.7607C29.7805 16.83 29.9413 16.3627 30.2429 15.9616C30.5445 15.5573 30.9389 15.2424 31.4261 15.017C31.9167 14.7917 32.4553 14.679 33.0419 14.679C33.6716 14.679 34.2119 14.8066 34.6626 15.0618C35.1134 15.3137 35.4598 15.6468 35.7017 16.0611C35.9437 16.4754 36.0646 16.9228 36.0646 17.4034C36.0646 17.9768 35.9138 18.4657 35.6122 18.87C35.3139 19.2744 34.9079 19.5545 34.3942 19.7102V19.7898C35.0372 19.8958 35.5393 20.1693 35.9006 20.6101C36.2618 21.0476 36.4425 21.5895 36.4425 22.2358C36.4425 22.7893 36.2917 23.2865 35.9901 23.7273C35.6918 24.1648 35.2841 24.5095 34.767 24.7614C34.25 25.0133 33.6617 25.1392 33.0021 25.1392ZM42.5923 25V14.8182H46.0327C46.8314 14.8182 47.4844 14.9624 47.9915 15.2507C48.5019 15.5357 48.8797 15.9219 49.125 16.4091C49.3703 16.8963 49.4929 17.4399 49.4929 18.0398C49.4929 18.6397 49.3703 19.1849 49.125 19.6754C48.883 20.166 48.5085 20.5571 48.0014 20.8487C47.4943 21.1371 46.8447 21.2812 46.0526 21.2812H43.5866V20.1875H46.0128C46.5597 20.1875 46.9988 20.093 47.3303 19.9041C47.6617 19.7152 47.902 19.46 48.0511 19.1385C48.2036 18.8137 48.2798 18.4474 48.2798 18.0398C48.2798 17.6321 48.2036 17.2675 48.0511 16.946C47.902 16.6245 47.66 16.3726 47.3253 16.1903C46.9905 16.0047 46.5464 15.9119 45.9929 15.9119H43.8253V25H42.5923ZM51.32 25V17.3636H52.4535V18.517H52.533C52.6722 18.1392 52.9241 17.8326 53.2887 17.5973C53.6533 17.362 54.0643 17.2443 54.5217 17.2443C54.6078 17.2443 54.7156 17.246 54.8448 17.2493C54.9741 17.2526 55.0719 17.2576 55.1381 17.2642V18.4574C55.0984 18.4474 55.0072 18.4325 54.8647 18.4126C54.7255 18.3894 54.578 18.3778 54.4222 18.3778C54.051 18.3778 53.7196 18.4557 53.4279 18.6115C53.1396 18.764 52.9109 18.9761 52.7418 19.2479C52.5761 19.5163 52.4933 19.8229 52.4933 20.1676V25H51.32ZM59.3988 25.1591C58.7094 25.1591 58.1045 24.995 57.5842 24.6669C57.0671 24.3388 56.6628 23.8797 56.3711 23.2898C56.0827 22.6998 55.9386 22.0104 55.9386 21.2216C55.9386 20.4261 56.0827 19.7318 56.3711 19.1385C56.6628 18.5452 57.0671 18.0845 57.5842 17.7564C58.1045 17.4283 58.7094 17.2642 59.3988 17.2642C60.0882 17.2642 60.6914 17.4283 61.2085 17.7564C61.7288 18.0845 62.1332 18.5452 62.4215 19.1385C62.7132 19.7318 62.859 20.4261 62.859 21.2216C62.859 22.0104 62.7132 22.6998 62.4215 23.2898C62.1332 23.8797 61.7288 24.3388 61.2085 24.6669C60.6914 24.995 60.0882 25.1591 59.3988 25.1591ZM59.3988 24.1051C59.9225 24.1051 60.3533 23.9709 60.6914 23.7024C61.0295 23.4339 61.2797 23.081 61.4421 22.6435C61.6045 22.206 61.6857 21.732 61.6857 21.2216C61.6857 20.7112 61.6045 20.2356 61.4421 19.7947C61.2797 19.3539 61.0295 18.9976 60.6914 18.7259C60.3533 18.4541 59.9225 18.3182 59.3988 18.3182C58.8751 18.3182 58.4442 18.4541 58.1062 18.7259C57.7681 18.9976 57.5179 19.3539 57.3555 19.7947C57.1931 20.2356 57.1119 20.7112 57.1119 21.2216C57.1119 21.732 57.1931 22.206 57.3555 22.6435C57.5179 23.081 57.7681 23.4339 58.1062 23.7024C58.4442 23.9709 58.8751 24.1051 59.3988 24.1051ZM68.7466 14.8182H70.2182L73.6784 23.2699H73.7978L77.258 14.8182H78.7296V25H77.5762V17.2642H77.4767L74.2949 25H73.1813L69.9995 17.2642H69.9V25H68.7466V14.8182ZM83.2898 25.179C82.8059 25.179 82.3667 25.0878 81.9723 24.9055C81.5779 24.7199 81.2647 24.4531 81.0327 24.1051C80.8007 23.7538 80.6847 23.3295 80.6847 22.8324C80.6847 22.3949 80.7708 22.0402 80.9432 21.7685C81.1155 21.4934 81.3459 21.2779 81.6342 21.1222C81.9226 20.9664 82.2408 20.8504 82.5888 20.7741C82.9401 20.6946 83.2931 20.6316 83.6477 20.5852C84.1117 20.5256 84.4879 20.4808 84.7763 20.451C85.0679 20.4179 85.2801 20.3632 85.4126 20.2869C85.5485 20.2107 85.6165 20.0781 85.6165 19.8892V19.8494C85.6165 19.3589 85.4822 18.9777 85.2138 18.706C84.9486 18.4342 84.5459 18.2983 84.0057 18.2983C83.4455 18.2983 83.0064 18.4209 82.6882 18.6662C82.37 18.9115 82.1463 19.1733 82.017 19.4517L80.9034 19.054C81.1023 18.59 81.3674 18.2287 81.6989 17.9702C82.0336 17.7083 82.3982 17.526 82.7926 17.4233C83.1903 17.3172 83.5814 17.2642 83.9659 17.2642C84.2112 17.2642 84.4929 17.294 84.8111 17.3537C85.1326 17.41 85.4425 17.5277 85.7408 17.7067C86.0424 17.8857 86.2926 18.1558 86.4915 18.517C86.6903 18.8783 86.7898 19.3622 86.7898 19.9688V25H85.6165V23.9659H85.5568C85.4773 24.1316 85.3447 24.3089 85.1591 24.4979C84.9735 24.6868 84.7266 24.8475 84.4183 24.9801C84.1101 25.1127 83.7339 25.179 83.2898 25.179ZM83.4688 24.125C83.9328 24.125 84.3239 24.0339 84.642 23.8516C84.9635 23.6693 85.2055 23.4339 85.3679 23.1456C85.5336 22.8572 85.6165 22.554 85.6165 22.2358V21.1619C85.5668 21.2216 85.4574 21.2763 85.2884 21.326C85.1226 21.3724 84.9304 21.4138 84.7116 21.4503C84.4962 21.4834 84.2857 21.5133 84.0803 21.5398C83.8781 21.563 83.714 21.5829 83.5881 21.5994C83.2831 21.6392 82.9981 21.7038 82.733 21.7933C82.4711 21.8795 82.259 22.0104 82.0966 22.1861C81.9375 22.3584 81.858 22.5937 81.858 22.892C81.858 23.2997 82.0088 23.608 82.3104 23.8168C82.6153 24.0223 83.0014 24.125 83.4688 24.125ZM89.8063 17.3636L91.6358 20.4858L93.4654 17.3636H94.8176L92.3517 21.1818L94.8176 25H93.4654L91.6358 22.0369L89.8063 25H88.454L90.8801 21.1818L88.454 17.3636H89.8063Z" fill="black"/>
</svg>
