<svg width="142" height="42" viewBox="0 0 142 42" fill="none" xmlns="http://www.w3.org/2000/svg">
<path d="M0.5 21C0.5 9.67816 9.67816 0.5 21 0.5H121C132.322 0.5 141.5 9.67816 141.5 21C141.5 32.3218 132.322 41.5 121 41.5H21C9.67817 41.5 0.5 32.3218 0.5 21Z" fill="white" stroke="#C5C5C5"/>
<path d="M30.1932 18C30.0838 17.6652 29.9396 17.3653 29.7607 17.1001C29.585 16.8317 29.3745 16.603 29.1293 16.4141C28.8873 16.2251 28.6122 16.081 28.304 15.9815C27.9957 15.8821 27.6577 15.8324 27.2898 15.8324C26.6866 15.8324 26.138 15.9882 25.6442 16.2997C25.1503 16.6113 24.7576 17.0703 24.4659 17.6768C24.1742 18.2834 24.0284 19.0275 24.0284 19.9091C24.0284 20.7907 24.1759 21.5348 24.4709 22.1413C24.7659 22.7479 25.1652 23.2069 25.669 23.5185C26.1728 23.83 26.7396 23.9858 27.3693 23.9858C27.9527 23.9858 28.4664 23.8615 28.9105 23.6129C29.358 23.361 29.706 23.0064 29.9545 22.549C30.2064 22.0883 30.3324 21.5464 30.3324 20.9233L30.7102 21.0028H27.6477V19.9091H31.5256V21.0028C31.5256 21.8414 31.3466 22.5705 30.9886 23.1903C30.634 23.8101 30.1435 24.2907 29.517 24.6321C28.8939 24.9702 28.178 25.1392 27.3693 25.1392C26.4678 25.1392 25.6757 24.9271 24.9929 24.5028C24.3134 24.0786 23.7831 23.4754 23.402 22.6932C23.0241 21.911 22.8352 20.983 22.8352 19.9091C22.8352 19.1037 22.9429 18.3795 23.1584 17.7365C23.3771 17.0902 23.6854 16.54 24.0831 16.0859C24.4808 15.6319 24.9515 15.2839 25.495 15.0419C26.0386 14.8 26.6368 14.679 27.2898 14.679C27.8267 14.679 28.3272 14.7602 28.7912 14.9226C29.2585 15.0817 29.6745 15.3087 30.0391 15.6037C30.407 15.8954 30.7135 16.245 30.9588 16.6527C31.2041 17.0571 31.3731 17.5062 31.4659 18H30.1932ZM36.5804 25.1591C35.891 25.1591 35.2862 24.995 34.7658 24.6669C34.2488 24.3388 33.8444 23.8797 33.5527 23.2898C33.2644 22.6998 33.1202 22.0104 33.1202 21.2216C33.1202 20.4261 33.2644 19.7318 33.5527 19.1385C33.8444 18.5452 34.2488 18.0845 34.7658 17.7564C35.2862 17.4283 35.891 17.2642 36.5804 17.2642C37.2698 17.2642 37.873 17.4283 38.3901 17.7564C38.9105 18.0845 39.3148 18.5452 39.6032 19.1385C39.8948 19.7318 40.0407 20.4261 40.0407 21.2216C40.0407 22.0104 39.8948 22.6998 39.6032 23.2898C39.3148 23.8797 38.9105 24.3388 38.3901 24.6669C37.873 24.995 37.2698 25.1591 36.5804 25.1591ZM36.5804 24.1051C37.1041 24.1051 37.535 23.9709 37.873 23.7024C38.2111 23.4339 38.4614 23.081 38.6238 22.6435C38.7862 22.206 38.8674 21.732 38.8674 21.2216C38.8674 20.7112 38.7862 20.2356 38.6238 19.7947C38.4614 19.3539 38.2111 18.9976 37.873 18.7259C37.535 18.4541 37.1041 18.3182 36.5804 18.3182C36.0568 18.3182 35.6259 18.4541 35.2878 18.7259C34.9498 18.9976 34.6995 19.3539 34.5371 19.7947C34.3747 20.2356 34.2935 20.7112 34.2935 21.2216C34.2935 21.732 34.3747 22.206 34.5371 22.6435C34.6995 23.081 34.9498 23.4339 35.2878 23.7024C35.6259 23.9709 36.0568 24.1051 36.5804 24.1051ZM44.9339 25.1591C44.2446 25.1591 43.6397 24.995 43.1193 24.6669C42.6023 24.3388 42.1979 23.8797 41.9062 23.2898C41.6179 22.6998 41.4737 22.0104 41.4737 21.2216C41.4737 20.4261 41.6179 19.7318 41.9062 19.1385C42.1979 18.5452 42.6023 18.0845 43.1193 17.7564C43.6397 17.4283 44.2446 17.2642 44.9339 17.2642C45.6233 17.2642 46.2266 17.4283 46.7436 17.7564C47.264 18.0845 47.6683 18.5452 47.9567 19.1385C48.2483 19.7318 48.3942 20.4261 48.3942 21.2216C48.3942 22.0104 48.2483 22.6998 47.9567 23.2898C47.6683 23.8797 47.264 24.3388 46.7436 24.6669C46.2266 24.995 45.6233 25.1591 44.9339 25.1591ZM44.9339 24.1051C45.4576 24.1051 45.8885 23.9709 46.2266 23.7024C46.5646 23.4339 46.8149 23.081 46.9773 22.6435C47.1397 22.206 47.2209 21.732 47.2209 21.2216C47.2209 20.7112 47.1397 20.2356 46.9773 19.7947C46.8149 19.3539 46.5646 18.9976 46.2266 18.7259C45.8885 18.4541 45.4576 18.3182 44.9339 18.3182C44.4103 18.3182 43.9794 18.4541 43.6413 18.7259C43.3033 18.9976 43.053 19.3539 42.8906 19.7947C42.7282 20.2356 42.647 20.7112 42.647 21.2216C42.647 21.732 42.7282 22.206 42.8906 22.6435C43.053 23.081 43.3033 23.4339 43.6413 23.7024C43.9794 23.9709 44.4103 24.1051 44.9339 24.1051ZM53.2676 28.0227C52.7008 28.0227 52.2136 27.9498 51.8059 27.804C51.3983 27.6615 51.0585 27.4725 50.7868 27.2372C50.5183 27.0052 50.3045 26.7566 50.1454 26.4915L51.0801 25.8352C51.1861 25.9744 51.3204 26.1335 51.4828 26.3125C51.6452 26.4948 51.8672 26.6522 52.149 26.7848C52.434 26.9207 52.8069 26.9886 53.2676 26.9886C53.8841 26.9886 54.3928 26.8395 54.7939 26.5412C55.1949 26.2429 55.3954 25.7756 55.3954 25.1392V23.5881H55.296C55.2098 23.7273 55.0872 23.8996 54.9281 24.1051C54.7723 24.3073 54.5469 24.4879 54.252 24.647C53.9603 24.8028 53.5659 24.8807 53.0687 24.8807C52.4522 24.8807 51.8987 24.7348 51.4082 24.4432C50.921 24.1515 50.5349 23.7273 50.2498 23.1705C49.9681 22.6136 49.8272 21.9375 49.8272 21.142C49.8272 20.3598 49.9648 19.6787 50.2399 19.0987C50.515 18.5154 50.8978 18.0646 51.3883 17.7464C51.8788 17.425 52.4456 17.2642 53.0886 17.2642C53.5858 17.2642 53.9802 17.3471 54.2718 17.5128C54.5668 17.6752 54.7922 17.8608 54.948 18.0696C55.1071 18.2751 55.2297 18.4441 55.3159 18.5767H55.4352V17.3636H56.5687V25.2188C56.5687 25.875 56.4196 26.4086 56.1213 26.8196C55.8263 27.2339 55.4286 27.5372 54.9281 27.7294C54.4309 27.925 53.8774 28.0227 53.2676 28.0227ZM53.2278 23.8267C53.6984 23.8267 54.0962 23.719 54.421 23.5036C54.7458 23.2881 54.9927 22.9782 55.1618 22.5739C55.3308 22.1695 55.4153 21.6856 55.4153 21.1222C55.4153 20.572 55.3324 20.0864 55.1667 19.6655C55.001 19.2446 54.7557 18.9148 54.4309 18.6761C54.1061 18.4375 53.7051 18.3182 53.2278 18.3182C52.7306 18.3182 52.3163 18.4441 51.9849 18.696C51.6568 18.9479 51.4099 19.286 51.2441 19.7102C51.0817 20.1345 51.0005 20.6051 51.0005 21.1222C51.0005 21.6525 51.0834 22.1214 51.2491 22.5291C51.4181 22.9335 51.6667 23.2517 51.9949 23.4837C52.3263 23.7124 52.7373 23.8267 53.2278 23.8267ZM59.8897 14.8182V25H58.7164V14.8182H59.8897ZM65.2404 25.1591C64.5046 25.1591 63.8699 24.9967 63.3363 24.6719C62.806 24.3438 62.3967 23.8864 62.1083 23.2997C61.8233 22.7098 61.6808 22.0237 61.6808 21.2415C61.6808 20.4593 61.8233 19.7699 62.1083 19.1733C62.3967 18.5734 62.7977 18.1061 63.3114 17.7713C63.8285 17.4332 64.4317 17.2642 65.1211 17.2642C65.5188 17.2642 65.9116 17.3305 66.2994 17.4631C66.6871 17.5956 67.0401 17.8111 67.3583 18.1094C67.6765 18.4044 67.93 18.7955 68.119 19.2827C68.3079 19.7699 68.4023 20.3698 68.4023 21.0824V21.5795H62.516V20.5653H67.2092C67.2092 20.1345 67.123 19.75 66.9506 19.4119C66.7816 19.0739 66.5397 18.8071 66.2248 18.6115C65.9132 18.416 65.5453 18.3182 65.1211 18.3182C64.6538 18.3182 64.2494 18.4342 63.908 18.6662C63.57 18.8949 63.3098 19.1932 63.1275 19.5611C62.9452 19.929 62.854 20.3234 62.854 20.7443V21.4205C62.854 21.9972 62.9535 22.486 63.1523 22.8871C63.3545 23.2848 63.6346 23.5881 63.9925 23.7969C64.3505 24.0024 64.7665 24.1051 65.2404 24.1051C65.5487 24.1051 65.8271 24.062 66.0756 23.9759C66.3275 23.8864 66.5446 23.7538 66.7269 23.5781C66.9092 23.3991 67.0501 23.1771 67.1495 22.9119L68.283 23.2301C68.1637 23.6146 67.9632 23.9527 67.6815 24.2443C67.3997 24.5327 67.0517 24.758 66.6374 24.9205C66.2231 25.0795 65.7575 25.1591 65.2404 25.1591ZM74.2837 25V14.8182H77.7241C78.5228 14.8182 79.1758 14.9624 79.6829 15.2507C80.1933 15.5357 80.5711 15.9219 80.8164 16.4091C81.0617 16.8963 81.1843 17.4399 81.1843 18.0398C81.1843 18.6397 81.0617 19.1849 80.8164 19.6754C80.5745 20.166 80.1999 20.5571 79.6928 20.8487C79.1857 21.1371 78.5361 21.2812 77.744 21.2812H75.2781V20.1875H77.7042C78.2511 20.1875 78.6902 20.093 79.0217 19.9041C79.3531 19.7152 79.5934 19.46 79.7425 19.1385C79.895 18.8137 79.9712 18.4474 79.9712 18.0398C79.9712 17.6321 79.895 17.2675 79.7425 16.946C79.5934 16.6245 79.3514 16.3726 79.0167 16.1903C78.6819 16.0047 78.2378 15.9119 77.6843 15.9119H75.5167V25H74.2837ZM83.0114 25V17.3636H84.1847V25H83.0114ZM83.608 16.0909C83.3793 16.0909 83.1821 16.013 83.0163 15.8572C82.8539 15.7015 82.7727 15.5142 82.7727 15.2955C82.7727 15.0767 82.8539 14.8894 83.0163 14.7337C83.1821 14.5779 83.3793 14.5 83.608 14.5C83.8366 14.5 84.0322 14.5779 84.1946 14.7337C84.3603 14.8894 84.4432 15.0767 84.4432 15.2955C84.4432 15.5142 84.3603 15.7015 84.1946 15.8572C84.0322 16.013 83.8366 16.0909 83.608 16.0909ZM87.2086 17.3636L89.0382 20.4858L90.8677 17.3636H92.22L89.7541 21.1818L92.22 25H90.8677L89.0382 22.0369L87.2086 25H85.8564L88.2825 21.1818L85.8564 17.3636H87.2086ZM96.7814 25.1591C96.0456 25.1591 95.4109 24.9967 94.8773 24.6719C94.347 24.3438 93.9377 23.8864 93.6493 23.2997C93.3643 22.7098 93.2218 22.0237 93.2218 21.2415C93.2218 20.4593 93.3643 19.7699 93.6493 19.1733C93.9377 18.5734 94.3387 18.1061 94.8525 17.7713C95.3695 17.4332 95.9727 17.2642 96.6621 17.2642C97.0598 17.2642 97.4526 17.3305 97.8404 17.4631C98.2282 17.5956 98.5811 17.8111 98.8993 18.1094C99.2175 18.4044 99.4711 18.7955 99.66 19.2827C99.8489 19.7699 99.9434 20.3698 99.9434 21.0824V21.5795H94.057V20.5653H98.7502C98.7502 20.1345 98.664 19.75 98.4917 19.4119C98.3226 19.0739 98.0807 18.8071 97.7658 18.6115C97.4542 18.416 97.0864 18.3182 96.6621 18.3182C96.1948 18.3182 95.7904 18.4342 95.449 18.6662C95.111 18.8949 94.8508 19.1932 94.6685 19.5611C94.4862 19.929 94.3951 20.3234 94.3951 20.7443V21.4205C94.3951 21.9972 94.4945 22.486 94.6934 22.8871C94.8955 23.2848 95.1756 23.5881 95.5336 23.7969C95.8915 24.0024 96.3075 24.1051 96.7814 24.1051C97.0897 24.1051 97.3681 24.062 97.6167 23.9759C97.8685 23.8864 98.0856 23.7538 98.2679 23.5781C98.4502 23.3991 98.5911 23.1771 98.6905 22.9119L99.824 23.2301C99.7047 23.6146 99.5042 23.9527 99.2225 24.2443C98.9408 24.5327 98.5927 24.758 98.1784 24.9205C97.7641 25.0795 97.2985 25.1591 96.7814 25.1591ZM102.901 14.8182V25H101.728V14.8182H102.901ZM112.408 25.1392C111.752 25.1392 111.167 25.0265 110.653 24.8011C110.143 24.5758 109.737 24.2625 109.435 23.8615C109.137 23.4571 108.975 22.9882 108.948 22.4545H110.201C110.228 22.7827 110.34 23.0661 110.539 23.3047C110.738 23.54 110.998 23.7223 111.32 23.8516C111.641 23.9808 111.997 24.0455 112.388 24.0455C112.826 24.0455 113.214 23.9692 113.552 23.8168C113.89 23.6643 114.155 23.4522 114.347 23.1804C114.54 22.9086 114.636 22.5938 114.636 22.2358C114.636 21.8613 114.543 21.5315 114.357 21.2464C114.172 20.9581 113.9 20.7327 113.542 20.5703C113.184 20.4079 112.746 20.3267 112.229 20.3267H111.414V19.233H112.229C112.634 19.233 112.988 19.16 113.293 19.0142C113.602 18.8684 113.842 18.6629 114.014 18.3977C114.19 18.1326 114.278 17.821 114.278 17.4631C114.278 17.1184 114.201 16.8184 114.049 16.5632C113.897 16.308 113.681 16.1091 113.403 15.9666C113.128 15.8241 112.803 15.7528 112.428 15.7528C112.077 15.7528 111.746 15.8175 111.434 15.9467C111.126 16.0727 110.874 16.2566 110.678 16.4986C110.483 16.7372 110.377 17.0256 110.36 17.3636H109.167C109.187 16.83 109.348 16.3627 109.649 15.9616C109.951 15.5573 110.345 15.2424 110.832 15.017C111.323 14.7917 111.862 14.679 112.448 14.679C113.078 14.679 113.618 14.8066 114.069 15.0618C114.52 15.3137 114.866 15.6468 115.108 16.0611C115.35 16.4754 115.471 16.9228 115.471 17.4034C115.471 17.9768 115.32 18.4657 115.018 18.87C114.72 19.2744 114.314 19.5545 113.8 19.7102V19.7898C114.443 19.8958 114.946 20.1693 115.307 20.6101C115.668 21.0476 115.849 21.5895 115.849 22.2358C115.849 22.7893 115.698 23.2865 115.396 23.7273C115.098 24.1648 114.69 24.5095 114.173 24.7614C113.656 25.0133 113.068 25.1392 112.408 25.1392Z" fill="black"/>
</svg>
