<svg width="98" height="42" viewBox="0 0 98 42" fill="none" xmlns="http://www.w3.org/2000/svg">
<path d="M0.5 21C0.5 9.67816 9.67816 0.5 21 0.5H77C88.3218 0.5 97.5 9.67816 97.5 21C97.5 32.3218 88.3218 41.5 77 41.5H21C9.67816 41.5 0.5 32.3218 0.5 21Z" fill="white" stroke="#C5C5C5"/>
<path d="M31.4261 18H30.1932C30.1203 17.6454 29.9927 17.3338 29.8104 17.0653C29.6314 16.7969 29.4126 16.5715 29.1541 16.3892C28.8989 16.2036 28.6155 16.0644 28.304 15.9716C27.9924 15.8788 27.6676 15.8324 27.3295 15.8324C26.7131 15.8324 26.1546 15.9882 25.6541 16.2997C25.157 16.6113 24.7609 17.0703 24.4659 17.6768C24.1742 18.2834 24.0284 19.0275 24.0284 19.9091C24.0284 20.7907 24.1742 21.5348 24.4659 22.1413C24.7609 22.7479 25.157 23.2069 25.6541 23.5185C26.1546 23.83 26.7131 23.9858 27.3295 23.9858C27.6676 23.9858 27.9924 23.9394 28.304 23.8466C28.6155 23.7538 28.8989 23.6162 29.1541 23.4339C29.4126 23.2483 29.6314 23.0213 29.8104 22.7528C29.9927 22.4811 30.1203 22.1695 30.1932 21.8182H31.4261C31.3333 22.3385 31.1643 22.8042 30.919 23.2152C30.6738 23.6262 30.3688 23.9759 30.0043 24.2642C29.6397 24.5492 29.2304 24.7663 28.7763 24.9155C28.3255 25.0646 27.8433 25.1392 27.3295 25.1392C26.4612 25.1392 25.6889 24.9271 25.0128 24.5028C24.3366 24.0786 23.8047 23.4754 23.4169 22.6932C23.0291 21.911 22.8352 20.983 22.8352 19.9091C22.8352 18.8352 23.0291 17.9072 23.4169 17.125C23.8047 16.3428 24.3366 15.7396 25.0128 15.3153C25.6889 14.8911 26.4612 14.679 27.3295 14.679C27.8433 14.679 28.3255 14.7536 28.7763 14.9027C29.2304 15.0518 29.6397 15.2706 30.0043 15.5589C30.3688 15.844 30.6738 16.192 30.919 16.603C31.1643 17.0107 31.3333 17.4763 31.4261 18ZM34.4327 20.4062V25H33.2594V14.8182H34.4327V18.5568H34.5321C34.7111 18.1624 34.9796 17.8492 35.3375 17.6172C35.6988 17.3819 36.1794 17.2642 36.7793 17.2642C37.2997 17.2642 37.7554 17.3686 38.1465 17.5774C38.5376 17.7829 38.8409 18.0994 39.0563 18.527C39.275 18.9512 39.3844 19.4915 39.3844 20.1477V25H38.2111V20.2273C38.2111 19.6207 38.0537 19.1518 37.7388 18.8203C37.4273 18.4856 36.9947 18.3182 36.4412 18.3182C36.0568 18.3182 35.7121 18.3994 35.4071 18.5618C35.1055 18.7242 34.8669 18.9612 34.6912 19.2727C34.5189 19.5843 34.4327 19.9621 34.4327 20.4062ZM43.7781 25.179C43.2942 25.179 42.855 25.0878 42.4606 24.9055C42.0662 24.7199 41.753 24.4531 41.521 24.1051C41.2889 23.7538 41.1729 23.3295 41.1729 22.8324C41.1729 22.3949 41.2591 22.0402 41.4315 21.7685C41.6038 21.4934 41.8342 21.2779 42.1225 21.1222C42.4109 20.9664 42.729 20.8504 43.0771 20.7741C43.4284 20.6946 43.7814 20.6316 44.136 20.5852C44.6 20.5256 44.9762 20.4808 45.2646 20.451C45.5562 20.4179 45.7683 20.3632 45.9009 20.2869C46.0368 20.2107 46.1048 20.0781 46.1048 19.8892V19.8494C46.1048 19.3589 45.9705 18.9777 45.7021 18.706C45.4369 18.4342 45.0342 18.2983 44.494 18.2983C43.9338 18.2983 43.4947 18.4209 43.1765 18.6662C42.8583 18.9115 42.6346 19.1733 42.5053 19.4517L41.3917 19.054C41.5906 18.59 41.8557 18.2287 42.1871 17.9702C42.5219 17.7083 42.8865 17.526 43.2809 17.4233C43.6786 17.3172 44.0697 17.2642 44.4542 17.2642C44.6995 17.2642 44.9812 17.294 45.2994 17.3537C45.6209 17.41 45.9308 17.5277 46.229 17.7067C46.5307 17.8857 46.7809 18.1558 46.9798 18.517C47.1786 18.8783 47.2781 19.3622 47.2781 19.9688V25H46.1048V23.9659H46.0451C45.9656 24.1316 45.833 24.3089 45.6474 24.4979C45.4618 24.6868 45.2148 24.8475 44.9066 24.9801C44.5984 25.1127 44.2222 25.179 43.7781 25.179ZM43.957 24.125C44.421 24.125 44.8121 24.0339 45.1303 23.8516C45.4518 23.6693 45.6938 23.4339 45.8562 23.1456C46.0219 22.8572 46.1048 22.554 46.1048 22.2358V21.1619C46.055 21.2216 45.9457 21.2763 45.7766 21.326C45.6109 21.3724 45.4187 21.4138 45.1999 21.4503C44.9845 21.4834 44.774 21.5133 44.5685 21.5398C44.3664 21.563 44.2023 21.5829 44.0763 21.5994C43.7714 21.6392 43.4864 21.7038 43.2212 21.7933C42.9594 21.8795 42.7473 22.0104 42.5849 22.1861C42.4258 22.3584 42.3462 22.5937 42.3462 22.892C42.3462 23.2997 42.497 23.608 42.7987 23.8168C43.1036 24.0223 43.4897 24.125 43.957 24.125ZM49.4196 25V17.3636H50.5531V18.517H50.6326C50.7718 18.1392 51.0237 17.8326 51.3883 17.5973C51.7529 17.362 52.1639 17.2443 52.6213 17.2443C52.7074 17.2443 52.8152 17.246 52.9444 17.2493C53.0737 17.2526 53.1715 17.2576 53.2377 17.2642V18.4574C53.198 18.4474 53.1068 18.4325 52.9643 18.4126C52.8251 18.3894 52.6776 18.3778 52.5218 18.3778C52.1506 18.3778 51.8192 18.4557 51.5275 18.6115C51.2392 18.764 51.0105 18.9761 50.8414 19.2479C50.6757 19.5163 50.5929 19.8229 50.5929 20.1676V25H49.4196ZM57.4785 28.0227C56.9118 28.0227 56.4245 27.9498 56.0169 27.804C55.6092 27.6615 55.2695 27.4725 54.9977 27.2372C54.7292 27.0052 54.5154 26.7566 54.3564 26.4915L55.291 25.8352C55.3971 25.9744 55.5313 26.1335 55.6937 26.3125C55.8561 26.4948 56.0782 26.6522 56.3599 26.7848C56.6449 26.9207 57.0178 26.9886 57.4785 26.9886C58.095 26.9886 58.6038 26.8395 59.0048 26.5412C59.4058 26.2429 59.6064 25.7756 59.6064 25.1392V23.5881H59.5069C59.4208 23.7273 59.2981 23.8996 59.139 24.1051C58.9833 24.3073 58.7579 24.4879 58.4629 24.647C58.1712 24.8028 57.7768 24.8807 57.2797 24.8807C56.6632 24.8807 56.1097 24.7348 55.6191 24.4432C55.1319 24.1515 54.7458 23.7273 54.4608 23.1705C54.179 22.6136 54.0382 21.9375 54.0382 21.142C54.0382 20.3598 54.1757 19.6787 54.4508 19.0987C54.7259 18.5154 55.1087 18.0646 55.5993 17.7464C56.0898 17.425 56.6565 17.2642 57.2995 17.2642C57.7967 17.2642 58.1911 17.3471 58.4828 17.5128C58.7778 17.6752 59.0031 17.8608 59.1589 18.0696C59.318 18.2751 59.4406 18.4441 59.5268 18.5767H59.6461V17.3636H60.7797V25.2188C60.7797 25.875 60.6305 26.4086 60.3322 26.8196C60.0372 27.2339 59.6395 27.5372 59.139 27.7294C58.6419 27.925 58.0884 28.0227 57.4785 28.0227ZM57.4387 23.8267C57.9094 23.8267 58.3071 23.719 58.6319 23.5036C58.9567 23.2881 59.2037 22.9782 59.3727 22.5739C59.5417 22.1695 59.6262 21.6856 59.6262 21.1222C59.6262 20.572 59.5434 20.0864 59.3777 19.6655C59.2119 19.2446 58.9667 18.9148 58.6419 18.6761C58.3171 18.4375 57.916 18.3182 57.4387 18.3182C56.9416 18.3182 56.5273 18.4441 56.1958 18.696C55.8677 18.9479 55.6208 19.286 55.4551 19.7102C55.2927 20.1345 55.2115 20.6051 55.2115 21.1222C55.2115 21.6525 55.2943 22.1214 55.46 22.5291C55.6291 22.9335 55.8777 23.2517 56.2058 23.4837C56.5372 23.7124 56.9482 23.8267 57.4387 23.8267ZM66.1291 25.1591C65.3933 25.1591 64.7586 24.9967 64.225 24.6719C63.6947 24.3438 63.2853 23.8864 62.997 23.2997C62.7119 22.7098 62.5694 22.0237 62.5694 21.2415C62.5694 20.4593 62.7119 19.7699 62.997 19.1733C63.2853 18.5734 63.6864 18.1061 64.2001 17.7713C64.7172 17.4332 65.3204 17.2642 66.0098 17.2642C66.4075 17.2642 66.8002 17.3305 67.188 17.4631C67.5758 17.5956 67.9288 17.8111 68.247 18.1094C68.5652 18.4044 68.8187 18.7955 69.0076 19.2827C69.1966 19.7699 69.291 20.3698 69.291 21.0824V21.5795H63.4047V20.5653H68.0978C68.0978 20.1345 68.0117 19.75 67.8393 19.4119C67.6703 19.0739 67.4283 18.8071 67.1135 18.6115C66.8019 18.416 66.434 18.3182 66.0098 18.3182C65.5424 18.3182 65.1381 18.4342 64.7967 18.6662C64.4586 18.8949 64.1984 19.1932 64.0162 19.5611C63.8339 19.929 63.7427 20.3234 63.7427 20.7443V21.4205C63.7427 21.9972 63.8422 22.486 64.041 22.8871C64.2432 23.2848 64.5233 23.5881 64.8812 23.7969C65.2392 24.0024 65.6551 24.1051 66.1291 24.1051C66.4373 24.1051 66.7157 24.062 66.9643 23.9759C67.2162 23.8864 67.4333 23.7538 67.6156 23.5781C67.7979 23.3991 67.9387 23.1771 68.0382 22.9119L69.1717 23.2301C69.0524 23.6146 68.8519 23.9527 68.5701 24.2443C68.2884 24.5327 67.9404 24.758 67.5261 24.9205C67.1118 25.0795 66.6461 25.1591 66.1291 25.1591ZM71.0758 25V17.3636H72.2093V18.517H72.2889C72.4281 18.1392 72.68 17.8326 73.0446 17.5973C73.4092 17.362 73.8201 17.2443 74.2775 17.2443C74.3637 17.2443 74.4714 17.246 74.6007 17.2493C74.7299 17.2526 74.8277 17.2576 74.894 17.2642V18.4574C74.8542 18.4474 74.7631 18.4325 74.6206 18.4126C74.4814 18.3894 74.3339 18.3778 74.1781 18.3778C73.8069 18.3778 73.4754 18.4557 73.1838 18.6115C72.8954 18.764 72.6667 18.9761 72.4977 19.2479C72.332 19.5163 72.2491 19.8229 72.2491 20.1676V25H71.0758Z" fill="black"/>
</svg>
