<svg width="312" height="96" viewBox="0 0 312 96" fill="none" xmlns="http://www.w3.org/2000/svg">
<path d="M130.983 14V3.09091H134.669C135.525 3.09091 136.225 3.24538 136.768 3.55433C137.315 3.85973 137.72 4.27344 137.982 4.79545C138.245 5.31747 138.377 5.89986 138.377 6.54261C138.377 7.18537 138.245 7.76953 137.982 8.2951C137.723 8.82067 137.322 9.2397 136.779 9.5522C136.235 9.86115 135.539 10.0156 134.691 10.0156H132.048V8.84375H134.648C135.234 8.84375 135.704 8.74254 136.059 8.54013C136.415 8.33771 136.672 8.06428 136.832 7.71982C136.995 7.3718 137.077 6.9794 137.077 6.54261C137.077 6.10582 136.995 5.7152 136.832 5.37074C136.672 5.02628 136.413 4.75639 136.054 4.56108C135.695 4.36222 135.22 4.26278 134.627 4.26278H132.304V14H130.983ZM141.591 9.07812V14H140.334V3.09091H141.591V7.09659H141.698C141.89 6.67401 142.177 6.33842 142.561 6.08984C142.948 5.83771 143.463 5.71165 144.105 5.71165C144.663 5.71165 145.151 5.82351 145.57 6.04723C145.989 6.2674 146.314 6.60653 146.545 7.06463C146.779 7.51918 146.897 8.09801 146.897 8.80114V14H145.64V8.88636C145.64 8.23651 145.471 7.73402 145.134 7.37891C144.8 7.02024 144.336 6.84091 143.743 6.84091C143.331 6.84091 142.962 6.92791 142.635 7.10192C142.312 7.27592 142.056 7.52983 141.868 7.86364C141.684 8.19744 141.591 8.60227 141.591 9.07812ZM152.52 14.1705C151.782 14.1705 151.134 13.9947 150.576 13.6431C150.022 13.2915 149.589 12.7997 149.276 12.1676C148.967 11.5355 148.813 10.7969 148.813 9.9517C148.813 9.09943 148.967 8.35547 149.276 7.71982C149.589 7.08416 150.022 6.59055 150.576 6.23899C151.134 5.88743 151.782 5.71165 152.52 5.71165C153.259 5.71165 153.905 5.88743 154.459 6.23899C155.017 6.59055 155.45 7.08416 155.759 7.71982C156.071 8.35547 156.228 9.09943 156.228 9.9517C156.228 10.7969 156.071 11.5355 155.759 12.1676C155.45 12.7997 155.017 13.2915 154.459 13.6431C153.905 13.9947 153.259 14.1705 152.52 14.1705ZM152.52 13.0412C153.081 13.0412 153.543 12.8974 153.905 12.6097C154.267 12.3221 154.536 11.9439 154.71 11.4751C154.884 11.0064 154.971 10.4986 154.971 9.9517C154.971 9.40483 154.884 8.89524 154.71 8.42294C154.536 7.95064 154.267 7.56889 153.905 7.2777C153.543 6.98651 153.081 6.84091 152.52 6.84091C151.959 6.84091 151.498 6.98651 151.135 7.2777C150.773 7.56889 150.505 7.95064 150.331 8.42294C150.157 8.89524 150.07 9.40483 150.07 9.9517C150.07 10.4986 150.157 11.0064 150.331 11.4751C150.505 11.9439 150.773 12.3221 151.135 12.6097C151.498 12.8974 151.959 13.0412 152.52 13.0412ZM159.404 9.07812V14H158.147V5.81818H159.361V7.09659H159.468C159.659 6.68111 159.951 6.3473 160.341 6.09517C160.732 5.83949 161.236 5.71165 161.854 5.71165C162.408 5.71165 162.893 5.82528 163.308 6.05256C163.724 6.27628 164.047 6.61719 164.278 7.07528C164.509 7.52983 164.624 8.10511 164.624 8.80114V14H163.367V8.88636C163.367 8.24361 163.2 7.7429 162.866 7.38423C162.532 7.02202 162.074 6.84091 161.492 6.84091C161.091 6.84091 160.732 6.92791 160.416 7.10192C160.103 7.27592 159.857 7.52983 159.675 7.86364C159.494 8.19744 159.404 8.60227 159.404 9.07812ZM170.351 14.1705C169.563 14.1705 168.883 13.9964 168.311 13.6484C167.743 13.2969 167.305 12.8068 166.996 12.1783C166.69 11.5462 166.538 10.8111 166.538 9.97301C166.538 9.13494 166.69 8.39631 166.996 7.7571C167.305 7.11435 167.734 6.61364 168.285 6.25497C168.839 5.89276 169.485 5.71165 170.224 5.71165C170.65 5.71165 171.071 5.78267 171.486 5.92472C171.902 6.06676 172.28 6.29759 172.621 6.61719C172.962 6.93324 173.233 7.35227 173.436 7.87429C173.638 8.39631 173.739 9.03906 173.739 9.80256V10.3352H167.432V9.24858H172.461C172.461 8.78693 172.369 8.375 172.184 8.01278C172.003 7.65057 171.744 7.3647 171.406 7.15518C171.072 6.94567 170.678 6.84091 170.224 6.84091C169.723 6.84091 169.29 6.9652 168.924 7.21378C168.562 7.45881 168.283 7.77841 168.088 8.17258C167.892 8.56676 167.795 8.98935 167.795 9.44034V10.1648C167.795 10.7827 167.901 11.3065 168.114 11.7362C168.331 12.1623 168.631 12.4872 169.014 12.7109C169.398 12.9311 169.844 13.0412 170.351 13.0412C170.682 13.0412 170.98 12.995 171.246 12.9027C171.516 12.8068 171.749 12.6648 171.944 12.4766C172.139 12.2848 172.29 12.0469 172.397 11.7628L173.611 12.1037C173.484 12.5156 173.269 12.8778 172.967 13.1903C172.665 13.4993 172.292 13.7408 171.848 13.9148C171.404 14.0852 170.905 14.1705 170.351 14.1705ZM181.447 7.65057L180.318 7.97017C180.247 7.78196 180.142 7.59908 180.003 7.42152C179.869 7.24041 179.684 7.09126 179.449 6.97408C179.215 6.85689 178.915 6.7983 178.549 6.7983C178.049 6.7983 177.631 6.91371 177.297 7.14453C176.967 7.3718 176.802 7.66122 176.802 8.01278C176.802 8.32528 176.916 8.57209 177.143 8.7532C177.37 8.9343 177.725 9.08523 178.208 9.20597L179.423 9.50426C180.154 9.68182 180.699 9.95348 181.058 10.3192C181.417 10.6815 181.596 11.1484 181.596 11.7202C181.596 12.1889 181.461 12.608 181.191 12.9773C180.925 13.3466 180.552 13.6378 180.073 13.8509C179.593 14.0639 179.036 14.1705 178.4 14.1705C177.566 14.1705 176.875 13.9893 176.328 13.6271C175.781 13.2649 175.435 12.7358 175.289 12.0398L176.483 11.7415C176.596 12.1818 176.811 12.5121 177.127 12.7322C177.447 12.9524 177.864 13.0625 178.379 13.0625C178.965 13.0625 179.43 12.9382 179.774 12.6896C180.122 12.4375 180.296 12.1357 180.296 11.7841C180.296 11.5 180.197 11.2621 179.998 11.0703C179.799 10.875 179.494 10.7294 179.082 10.6335L177.718 10.3139C176.969 10.1364 176.419 9.86115 176.067 9.48828C175.719 9.11186 175.545 8.64134 175.545 8.0767C175.545 7.61506 175.675 7.20668 175.934 6.85156C176.197 6.49645 176.554 6.21768 177.005 6.01527C177.459 5.81286 177.974 5.71165 178.549 5.71165C179.359 5.71165 179.995 5.8892 180.456 6.24432C180.921 6.59943 181.252 7.06818 181.447 7.65057Z" fill="black"/>
<path d="M44.9333 49V37.832L45.1573 39.4L36.1013 26.6H40.2613L47.1733 36.52L46.3733 36.424L52.6133 26.6H56.5813L47.9093 39.752L48.3893 37.576V49H44.9333ZM64.1998 49.32C62.5571 49.32 61.0851 48.9467 59.7838 48.2C58.5038 47.432 57.4904 46.3973 56.7438 45.096C55.9971 43.7733 55.6238 42.2693 55.6238 40.584C55.6238 38.8987 55.9971 37.4053 56.7438 36.104C57.4904 34.7813 58.5038 33.7467 59.7838 33C61.0851 32.232 62.5571 31.848 64.1998 31.848C65.8211 31.848 67.2718 32.232 68.5518 33C69.8531 33.7467 70.8771 34.7813 71.6238 36.104C72.3704 37.4053 72.7438 38.8987 72.7438 40.584C72.7438 42.2693 72.3704 43.7733 71.6238 45.096C70.8771 46.3973 69.8531 47.432 68.5518 48.2C67.2718 48.9467 65.8211 49.32 64.1998 49.32ZM64.1998 46.312C65.2024 46.312 66.0984 46.0667 66.8878 45.576C67.6771 45.064 68.2958 44.3813 68.7438 43.528C69.1918 42.6533 69.4051 41.672 69.3838 40.584C69.4051 39.4747 69.1918 38.4933 68.7438 37.64C68.2958 36.7653 67.6771 36.0827 66.8878 35.592C66.0984 35.1013 65.2024 34.856 64.1998 34.856C63.1971 34.856 62.2904 35.112 61.4798 35.624C60.6904 36.1147 60.0718 36.7973 59.6238 37.672C59.1758 38.5253 58.9624 39.496 58.9838 40.584C58.9624 41.672 59.1758 42.6533 59.6238 43.528C60.0718 44.3813 60.6904 45.064 61.4798 45.576C62.2904 46.0667 63.1971 46.312 64.1998 46.312ZM82.2233 49.32C81.0286 49.32 79.9833 49.0427 79.0873 48.488C78.2126 47.9333 77.5299 47.1547 77.0393 46.152C76.5699 45.1493 76.3353 43.9547 76.3353 42.568V32.2H79.6313V41.672C79.6313 43.144 79.9726 44.3067 80.6553 45.16C81.3593 46.0133 82.3299 46.44 83.5673 46.44C84.1859 46.44 84.7513 46.344 85.2633 46.152C85.7753 45.9387 86.2126 45.6507 86.5753 45.288C86.9593 44.9253 87.2579 44.488 87.4713 43.976C87.6846 43.464 87.7913 42.9093 87.7913 42.312V32.2H91.0873V49H87.7913V45.48L88.3673 45.096C88.1113 45.8853 87.6739 46.6 87.0553 47.24C86.4579 47.88 85.7433 48.392 84.9113 48.776C84.0793 49.1387 83.1833 49.32 82.2233 49.32ZM95.7103 49V32.2H99.0383V37.48L98.7183 36.2C98.9529 35.3893 99.3476 34.6533 99.9023 33.992C100.478 33.3307 101.129 32.808 101.854 32.424C102.601 32.04 103.369 31.848 104.158 31.848C104.521 31.848 104.862 31.88 105.182 31.944C105.524 32.008 105.79 32.0827 105.982 32.168L105.118 35.752C104.862 35.6453 104.574 35.56 104.254 35.496C103.956 35.4107 103.657 35.368 103.358 35.368C102.782 35.368 102.228 35.4853 101.694 35.72C101.182 35.9333 100.724 36.2427 100.318 36.648C99.9343 37.032 99.6249 37.4907 99.3903 38.024C99.1556 38.536 99.0383 39.1013 99.0383 39.72V49H95.7103ZM124.593 49.32C123.057 49.32 121.681 48.9467 120.465 48.2C119.271 47.432 118.321 46.3973 117.617 45.096C116.913 43.7733 116.561 42.2693 116.561 40.584C116.561 38.8987 116.903 37.4053 117.585 36.104C118.289 34.7813 119.239 33.7467 120.433 33C121.628 32.232 122.983 31.848 124.497 31.848C125.329 31.848 126.129 31.9867 126.897 32.264C127.687 32.52 128.391 32.8827 129.009 33.352C129.628 33.8 130.108 34.3013 130.449 34.856C130.812 35.3893 130.993 35.9333 130.993 36.488L130.033 36.552V25.32H133.329V49H130.033V45H130.673C130.673 45.512 130.503 46.024 130.161 46.536C129.82 47.0267 129.361 47.4853 128.785 47.912C128.231 48.3387 127.58 48.68 126.833 48.936C126.108 49.192 125.361 49.32 124.593 49.32ZM125.041 46.472C126.044 46.472 126.929 46.216 127.697 45.704C128.465 45.192 129.063 44.4987 129.489 43.624C129.937 42.728 130.161 41.7147 130.161 40.584C130.161 39.4533 129.937 38.4507 129.489 37.576C129.063 36.68 128.465 35.976 127.697 35.464C126.929 34.952 126.044 34.696 125.041 34.696C124.039 34.696 123.153 34.952 122.385 35.464C121.617 35.976 121.009 36.68 120.561 37.576C120.135 38.4507 119.921 39.4533 119.921 40.584C119.921 41.7147 120.135 42.728 120.561 43.624C121.009 44.4987 121.617 45.192 122.385 45.704C123.153 46.216 124.039 46.472 125.041 46.472ZM147.819 49V38.056C147.819 37.1173 147.477 36.36 146.795 35.784C146.133 35.1867 145.291 34.888 144.267 34.888C143.328 34.888 142.475 35.08 141.707 35.464C140.96 35.848 140.277 36.4347 139.659 37.224L137.515 35.08C138.517 33.992 139.595 33.1813 140.747 32.648C141.92 32.1147 143.179 31.848 144.523 31.848C145.803 31.848 146.912 32.0613 147.851 32.488C148.789 32.9147 149.515 33.544 150.027 34.376C150.539 35.1867 150.795 36.1787 150.795 37.352V49H147.819ZM142.795 49.32C141.707 49.32 140.736 49.1067 139.883 48.68C139.029 48.2533 138.347 47.6667 137.835 46.92C137.344 46.152 137.099 45.256 137.099 44.232C137.099 43.336 137.259 42.5467 137.579 41.864C137.899 41.1813 138.368 40.616 138.987 40.168C139.627 39.72 140.416 39.3787 141.355 39.144C142.315 38.9093 143.413 38.792 144.651 38.792H149.323L149.035 41.416H144.235C143.595 41.416 143.019 41.48 142.507 41.608C142.016 41.7147 141.589 41.896 141.227 42.152C140.885 42.3867 140.629 42.6747 140.459 43.016C140.288 43.336 140.203 43.72 140.203 44.168C140.203 44.6373 140.32 45.0533 140.555 45.416C140.789 45.7573 141.109 46.024 141.515 46.216C141.92 46.408 142.389 46.504 142.923 46.504C143.691 46.504 144.416 46.376 145.099 46.12C145.803 45.8427 146.421 45.4693 146.955 45C147.509 44.5307 147.936 44.008 148.235 43.432L149.003 45.576C148.555 46.3227 148 46.9733 147.339 47.528C146.677 48.0827 145.963 48.52 145.195 48.84C144.427 49.16 143.627 49.32 142.795 49.32ZM157.401 56.36L160.793 48.52L160.825 51.144L152.441 32.2H156.281L161.529 44.552C161.636 44.7653 161.764 45.096 161.913 45.544C162.063 45.9707 162.191 46.3973 162.297 46.824L161.465 47.016C161.636 46.568 161.796 46.12 161.945 45.672C162.116 45.224 162.276 44.776 162.425 44.328L166.809 32.2H170.713L163.801 49L160.953 56.36H157.401ZM184.228 49V27.912H187.524V49H184.228ZM180.74 35.4V32.2H191.428V35.4H180.74ZM201.825 49.32C200.182 49.32 198.71 48.9467 197.409 48.2C196.129 47.432 195.115 46.3973 194.369 45.096C193.622 43.7733 193.249 42.2693 193.249 40.584C193.249 38.8987 193.622 37.4053 194.369 36.104C195.115 34.7813 196.129 33.7467 197.409 33C198.71 32.232 200.182 31.848 201.825 31.848C203.446 31.848 204.897 32.232 206.177 33C207.478 33.7467 208.502 34.7813 209.249 36.104C209.995 37.4053 210.369 38.8987 210.369 40.584C210.369 42.2693 209.995 43.7733 209.249 45.096C208.502 46.3973 207.478 47.432 206.177 48.2C204.897 48.9467 203.446 49.32 201.825 49.32ZM201.825 46.312C202.827 46.312 203.723 46.0667 204.513 45.576C205.302 45.064 205.921 44.3813 206.369 43.528C206.817 42.6533 207.03 41.672 207.009 40.584C207.03 39.4747 206.817 38.4933 206.369 37.64C205.921 36.7653 205.302 36.0827 204.513 35.592C203.723 35.1013 202.827 34.856 201.825 34.856C200.822 34.856 199.915 35.112 199.105 35.624C198.315 36.1147 197.697 36.7973 197.249 37.672C196.801 38.5253 196.587 39.496 196.609 40.584C196.587 41.672 196.801 42.6533 197.249 43.528C197.697 44.3813 198.315 45.064 199.105 45.576C199.915 46.0667 200.822 46.312 201.825 46.312ZM229.937 49.32C228.401 49.32 227.025 48.9467 225.809 48.2C224.614 47.432 223.665 46.3973 222.961 45.096C222.257 43.7733 221.905 42.2693 221.905 40.584C221.905 38.8987 222.246 37.4053 222.929 36.104C223.633 34.7813 224.582 33.7467 225.777 33C226.972 32.232 228.326 31.848 229.841 31.848C230.673 31.848 231.473 31.9867 232.241 32.264C233.03 32.52 233.734 32.8827 234.353 33.352C234.972 33.8 235.452 34.3013 235.793 34.856C236.156 35.3893 236.337 35.9333 236.337 36.488L235.377 36.552V25.32H238.673V49H235.377V45H236.017C236.017 45.512 235.846 46.024 235.505 46.536C235.164 47.0267 234.705 47.4853 234.129 47.912C233.574 48.3387 232.924 48.68 232.177 48.936C231.452 49.192 230.705 49.32 229.937 49.32ZM230.385 46.472C231.388 46.472 232.273 46.216 233.041 45.704C233.809 45.192 234.406 44.4987 234.833 43.624C235.281 42.728 235.505 41.7147 235.505 40.584C235.505 39.4533 235.281 38.4507 234.833 37.576C234.406 36.68 233.809 35.976 233.041 35.464C232.273 34.952 231.388 34.696 230.385 34.696C229.382 34.696 228.497 34.952 227.729 35.464C226.961 35.976 226.353 36.68 225.905 37.576C225.478 38.4507 225.265 39.4533 225.265 40.584C225.265 41.7147 225.478 42.728 225.905 43.624C226.353 44.4987 226.961 45.192 227.729 45.704C228.497 46.216 229.382 46.472 230.385 46.472ZM253.162 49V38.056C253.162 37.1173 252.821 36.36 252.138 35.784C251.477 35.1867 250.634 34.888 249.61 34.888C248.672 34.888 247.818 35.08 247.05 35.464C246.304 35.848 245.621 36.4347 245.002 37.224L242.858 35.08C243.861 33.992 244.938 33.1813 246.09 32.648C247.264 32.1147 248.522 31.848 249.866 31.848C251.146 31.848 252.256 32.0613 253.194 32.488C254.133 32.9147 254.858 33.544 255.37 34.376C255.882 35.1867 256.138 36.1787 256.138 37.352V49H253.162ZM248.138 49.32C247.05 49.32 246.08 49.1067 245.226 48.68C244.373 48.2533 243.69 47.6667 243.178 46.92C242.688 46.152 242.442 45.256 242.442 44.232C242.442 43.336 242.602 42.5467 242.922 41.864C243.242 41.1813 243.712 40.616 244.33 40.168C244.97 39.72 245.76 39.3787 246.698 39.144C247.658 38.9093 248.757 38.792 249.994 38.792H254.666L254.378 41.416H249.578C248.938 41.416 248.362 41.48 247.85 41.608C247.36 41.7147 246.933 41.896 246.57 42.152C246.229 42.3867 245.973 42.6747 245.802 43.016C245.632 43.336 245.546 43.72 245.546 44.168C245.546 44.6373 245.664 45.0533 245.898 45.416C246.133 45.7573 246.453 46.024 246.858 46.216C247.264 46.408 247.733 46.504 248.266 46.504C249.034 46.504 249.76 46.376 250.442 46.12C251.146 45.8427 251.765 45.4693 252.298 45C252.853 44.5307 253.28 44.008 253.578 43.432L254.346 45.576C253.898 46.3227 253.344 46.9733 252.682 47.528C252.021 48.0827 251.306 48.52 250.538 48.84C249.77 49.16 248.97 49.32 248.138 49.32ZM262.745 56.36L266.137 48.52L266.169 51.144L257.785 32.2H261.625L266.873 44.552C266.98 44.7653 267.108 45.096 267.257 45.544C267.406 45.9707 267.534 46.3973 267.641 46.824L266.809 47.016C266.98 46.568 267.14 46.12 267.289 45.672C267.46 45.224 267.62 44.776 267.769 44.328L272.153 32.2H276.057L269.145 49L266.297 56.36H262.745ZM134.556 88V64.32H137.852V88H134.556ZM143.067 88V71.2H146.363V88H143.067ZM144.667 67.488C143.963 67.488 143.419 67.3067 143.035 66.944C142.651 66.5813 142.459 66.0693 142.459 65.408C142.459 64.7893 142.651 64.288 143.035 63.904C143.44 63.52 143.984 63.328 144.667 63.328C145.371 63.328 145.915 63.5093 146.299 63.872C146.683 64.2347 146.875 64.7467 146.875 65.408C146.875 66.0267 146.672 66.528 146.267 66.912C145.883 67.296 145.349 67.488 144.667 67.488ZM153.253 88V69.312C153.253 68.352 153.466 67.4987 153.893 66.752C154.32 66.0053 154.906 65.4187 155.653 64.992C156.4 64.5653 157.264 64.352 158.245 64.352C158.928 64.352 159.568 64.48 160.165 64.736C160.762 64.992 161.242 65.3333 161.605 65.76L160.485 68.288C160.208 68.032 159.898 67.8293 159.557 67.68C159.237 67.5093 158.928 67.424 158.629 67.424C158.181 67.424 157.797 67.4987 157.477 67.648C157.178 67.776 156.954 67.9893 156.805 68.288C156.656 68.5653 156.581 68.9067 156.581 69.312V88H154.917C154.64 88 154.362 88 154.085 88C153.808 88 153.53 88 153.253 88ZM150.565 74.528V71.488H160.549V74.528H150.565ZM171.207 88.32C169.479 88.32 167.943 87.9573 166.599 87.232C165.276 86.4853 164.231 85.472 163.463 84.192C162.716 82.912 162.343 81.44 162.343 79.776C162.343 78.4533 162.556 77.248 162.983 76.16C163.409 75.072 163.996 74.1333 164.743 73.344C165.511 72.5333 166.417 71.9147 167.463 71.488C168.529 71.04 169.681 70.816 170.919 70.816C172.007 70.816 173.02 71.0293 173.959 71.456C174.897 71.8613 175.708 72.4267 176.391 73.152C177.095 73.8773 177.628 74.7413 177.991 75.744C178.375 76.7253 178.556 77.8027 178.535 78.976L178.503 80.384H164.775L164.039 77.76H175.655L175.175 78.304V77.536C175.111 76.832 174.876 76.2027 174.471 75.648C174.065 75.0933 173.553 74.656 172.935 74.336C172.316 74.016 171.644 73.856 170.919 73.856C169.767 73.856 168.796 74.08 168.007 74.528C167.217 74.9547 166.62 75.5947 166.215 76.448C165.809 77.28 165.607 78.3147 165.607 79.552C165.607 80.7253 165.852 81.7493 166.343 82.624C166.833 83.4773 167.527 84.1387 168.423 84.608C169.319 85.0773 170.353 85.312 171.527 85.312C172.359 85.312 173.127 85.1733 173.831 84.896C174.556 84.6187 175.335 84.1173 176.167 83.392L177.831 85.728C177.319 86.24 176.689 86.688 175.943 87.072C175.217 87.456 174.439 87.7653 173.607 88C172.796 88.2133 171.996 88.32 171.207 88.32Z" fill="black"/>
</svg>
