<svg width="109" height="28" viewBox="0 0 109 28" fill="none" xmlns="http://www.w3.org/2000/svg">
<path d="M11.6591 8.90909C11.5568 8.04545 11.142 7.375 10.4148 6.89773C9.6875 6.42045 8.79545 6.18182 7.73864 6.18182C6.96591 6.18182 6.28977 6.30682 5.71023 6.55682C5.13636 6.80682 4.6875 7.15057 4.36364 7.58807C4.04545 8.02557 3.88636 8.52273 3.88636 9.07954C3.88636 9.54545 3.99716 9.94602 4.21875 10.2812C4.44602 10.6108 4.7358 10.8864 5.08807 11.108C5.44034 11.3239 5.80966 11.5028 6.19602 11.6449C6.58239 11.7812 6.9375 11.892 7.26136 11.9773L9.03409 12.4545C9.48864 12.5739 9.99432 12.7386 10.5511 12.9489C11.1136 13.1591 11.6506 13.446 12.1619 13.8097C12.679 14.1676 13.1051 14.6278 13.4403 15.1903C13.7756 15.7528 13.9432 16.4432 13.9432 17.2614C13.9432 18.2045 13.696 19.0568 13.2017 19.8182C12.7131 20.5795 11.9972 21.1847 11.054 21.6335C10.1165 22.0824 8.97727 22.3068 7.63636 22.3068C6.38636 22.3068 5.30398 22.1051 4.3892 21.7017C3.48011 21.2983 2.7642 20.7358 2.24148 20.0142C1.72443 19.2926 1.43182 18.4545 1.36364 17.5H3.54545C3.60227 18.1591 3.82386 18.7045 4.21023 19.1364C4.60227 19.5625 5.09659 19.8807 5.69318 20.0909C6.29545 20.2955 6.94318 20.3977 7.63636 20.3977C8.44318 20.3977 9.16761 20.267 9.80966 20.0057C10.4517 19.7386 10.9602 19.3693 11.3352 18.8977C11.7102 18.4205 11.8977 17.8636 11.8977 17.2273C11.8977 16.6477 11.7358 16.1761 11.4119 15.8125C11.0881 15.4489 10.6619 15.1534 10.1335 14.9261C9.60511 14.6989 9.03409 14.5 8.42045 14.3295L6.27273 13.7159C4.90909 13.3239 3.82955 12.7642 3.03409 12.0369C2.23864 11.3097 1.84091 10.358 1.84091 9.18182C1.84091 8.20454 2.10511 7.35227 2.63352 6.625C3.16761 5.89205 3.88352 5.32386 4.78125 4.92045C5.68466 4.51136 6.69318 4.30682 7.80682 4.30682C8.93182 4.30682 9.93182 4.50852 10.8068 4.91193C11.6818 5.30966 12.375 5.85511 12.8864 6.54829C13.4034 7.24148 13.6761 8.02841 13.7045 8.90909H11.6591ZM22.6342 22.2727C21.3729 22.2727 20.2848 21.9943 19.37 21.4375C18.4609 20.875 17.7592 20.0909 17.2649 19.0852C16.7763 18.0739 16.532 16.8977 16.532 15.5568C16.532 14.2159 16.7763 13.0341 17.2649 12.0114C17.7592 10.983 18.4467 10.1818 19.3274 9.60795C20.2138 9.02841 21.2479 8.73864 22.4297 8.73864C23.1115 8.73864 23.7848 8.85227 24.4496 9.07954C25.1143 9.30682 25.7195 9.67614 26.2649 10.1875C26.8104 10.6932 27.245 11.3636 27.5689 12.1989C27.8928 13.0341 28.0547 14.0625 28.0547 15.2841V16.1364H17.9638V14.3977H26.0092C26.0092 13.6591 25.8615 13 25.5661 12.4205C25.2763 11.8409 24.8615 11.3835 24.3217 11.0483C23.7876 10.7131 23.157 10.5455 22.4297 10.5455C21.6286 10.5455 20.9354 10.7443 20.3501 11.142C19.7706 11.5341 19.3246 12.0455 19.0121 12.6761C18.6996 13.3068 18.5433 13.983 18.5433 14.7045V15.8636C18.5433 16.8523 18.7138 17.6903 19.0547 18.3778C19.4013 19.0597 19.8814 19.5795 20.495 19.9375C21.1087 20.2898 21.8217 20.4659 22.6342 20.4659C23.1626 20.4659 23.6399 20.392 24.0661 20.2443C24.4979 20.0909 24.87 19.8636 25.1825 19.5625C25.495 19.2557 25.7365 18.875 25.907 18.4205L27.8501 18.9659C27.6456 19.625 27.3018 20.2045 26.8189 20.7045C26.3359 21.1989 25.7393 21.5852 25.0291 21.8636C24.3189 22.1364 23.5206 22.2727 22.6342 22.2727ZM36.603 22.2727C35.3416 22.2727 34.2536 21.9943 33.3388 21.4375C32.4297 20.875 31.728 20.0909 31.2337 19.0852C30.745 18.0739 30.5007 16.8977 30.5007 15.5568C30.5007 14.2159 30.745 13.0341 31.2337 12.0114C31.728 10.983 32.4155 10.1818 33.2962 9.60795C34.1825 9.02841 35.2166 8.73864 36.3984 8.73864C37.0803 8.73864 37.7536 8.85227 38.4183 9.07954C39.0831 9.30682 39.6882 9.67614 40.2337 10.1875C40.7791 10.6932 41.2138 11.3636 41.5376 12.1989C41.8615 13.0341 42.0234 14.0625 42.0234 15.2841V16.1364H31.9325V14.3977H39.978C39.978 13.6591 39.8303 13 39.5348 12.4205C39.245 11.8409 38.8303 11.3835 38.2905 11.0483C37.7564 10.7131 37.1257 10.5455 36.3984 10.5455C35.5973 10.5455 34.9041 10.7443 34.3189 11.142C33.7393 11.5341 33.2933 12.0455 32.9808 12.6761C32.6683 13.3068 32.5121 13.983 32.5121 14.7045V15.8636C32.5121 16.8523 32.6825 17.6903 33.0234 18.3778C33.37 19.0597 33.8501 19.5795 34.4638 19.9375C35.0774 20.2898 35.7905 20.4659 36.603 20.4659C37.1314 20.4659 37.6087 20.392 38.0348 20.2443C38.4666 20.0909 38.8388 19.8636 39.1513 19.5625C39.4638 19.2557 39.7053 18.875 39.8757 18.4205L41.8189 18.9659C41.6143 19.625 41.2706 20.2045 40.7876 20.7045C40.3047 21.1989 39.7081 21.5852 38.9979 21.8636C38.2876 22.1364 37.4893 22.2727 36.603 22.2727ZM52.8217 22H50.6058L57.0149 4.54545H59.1967L65.6058 22H63.3899L58.174 7.30682H58.0376L52.8217 22ZM53.6399 15.1818H62.5717V17.0568H53.6399V15.1818ZM70.0632 4.54545V22H68.0518V4.54545H70.0632ZM75.7585 4.54545V22H73.7472V4.54545H75.7585Z" fill="black"/>
</svg>
