<svg width="311" height="96" viewBox="0 0 311 96" fill="none" xmlns="http://www.w3.org/2000/svg">
<path d="M132.796 3.61364V2.36364H141.523V3.61364H137.864V14H136.455V3.61364H132.796ZM144.897 14.2045C144.344 14.2045 143.842 14.1004 143.391 13.892C142.941 13.6799 142.583 13.375 142.317 12.9773C142.052 12.5758 141.92 12.0909 141.92 11.5227C141.92 11.0227 142.018 10.6174 142.215 10.3068C142.412 9.99242 142.675 9.74621 143.005 9.56818C143.335 9.39015 143.698 9.25758 144.096 9.17045C144.497 9.07955 144.901 9.00758 145.306 8.95455C145.836 8.88636 146.266 8.83523 146.596 8.80114C146.929 8.76326 147.172 8.70076 147.323 8.61364C147.478 8.52652 147.556 8.375 147.556 8.15909V8.11364C147.556 7.55303 147.403 7.11742 147.096 6.80682C146.793 6.49621 146.333 6.34091 145.715 6.34091C145.075 6.34091 144.573 6.48106 144.21 6.76136C143.846 7.04167 143.59 7.34091 143.442 7.65909L142.17 7.20455C142.397 6.67424 142.7 6.26136 143.079 5.96591C143.461 5.66667 143.878 5.45833 144.329 5.34091C144.783 5.2197 145.23 5.15909 145.67 5.15909C145.95 5.15909 146.272 5.19318 146.636 5.26136C147.003 5.32576 147.357 5.46023 147.698 5.66477C148.043 5.86932 148.329 6.17803 148.556 6.59091C148.783 7.00379 148.897 7.55682 148.897 8.25V14H147.556V12.8182H147.488C147.397 13.0076 147.246 13.2102 147.033 13.4261C146.821 13.642 146.539 13.8258 146.187 13.9773C145.835 14.1288 145.405 14.2045 144.897 14.2045ZM145.102 13C145.632 13 146.079 12.8958 146.442 12.6875C146.81 12.4792 147.086 12.2102 147.272 11.8807C147.461 11.5511 147.556 11.2045 147.556 10.8409V9.61364C147.499 9.68182 147.374 9.74432 147.181 9.80114C146.992 9.85417 146.772 9.90151 146.522 9.94318C146.276 9.98106 146.035 10.0152 145.8 10.0455C145.569 10.072 145.382 10.0947 145.238 10.1136C144.889 10.1591 144.564 10.233 144.261 10.3352C143.961 10.4337 143.719 10.5833 143.533 10.7841C143.352 10.9811 143.261 11.25 143.261 11.5909C143.261 12.0568 143.433 12.4091 143.778 12.6477C144.126 12.8826 144.567 13 145.102 13ZM151.526 14V2.36364H152.867V6.65909H152.981C153.079 6.50758 153.216 6.31439 153.39 6.07955C153.568 5.84091 153.822 5.62879 154.151 5.44318C154.485 5.25379 154.935 5.15909 155.504 5.15909C156.238 5.15909 156.886 5.3428 157.447 5.71023C158.007 6.07765 158.445 6.59848 158.759 7.27273C159.074 7.94697 159.231 8.74242 159.231 9.65909C159.231 10.5833 159.074 11.3845 158.759 12.0625C158.445 12.7367 158.009 13.2595 157.452 13.6307C156.896 13.9981 156.254 14.1818 155.526 14.1818C154.966 14.1818 154.517 14.089 154.18 13.9034C153.843 13.714 153.583 13.5 153.401 13.2614C153.219 13.0189 153.079 12.8182 152.981 12.6591H152.822V14H151.526ZM152.844 9.63636C152.844 10.2955 152.941 10.8769 153.134 11.3807C153.327 11.8807 153.61 12.2727 153.981 12.5568C154.352 12.8371 154.807 12.9773 155.344 12.9773C155.905 12.9773 156.373 12.8295 156.748 12.5341C157.127 12.2348 157.411 11.8333 157.6 11.3295C157.793 10.822 157.89 10.2576 157.89 9.63636C157.89 9.02273 157.795 8.4697 157.606 7.97727C157.42 7.48106 157.138 7.08902 156.759 6.80114C156.384 6.50947 155.913 6.36364 155.344 6.36364C154.799 6.36364 154.341 6.50189 153.969 6.77841C153.598 7.05114 153.318 7.43371 153.129 7.92614C152.939 8.41477 152.844 8.98485 152.844 9.63636ZM162.623 2.36364V14H161.282V2.36364H162.623ZM168.738 14.1818C167.897 14.1818 167.172 13.9962 166.562 13.625C165.956 13.25 165.488 12.7273 165.158 12.0568C164.833 11.3826 164.67 10.5985 164.67 9.70455C164.67 8.81061 164.833 8.02273 165.158 7.34091C165.488 6.6553 165.946 6.12121 166.533 5.73864C167.124 5.35227 167.814 5.15909 168.602 5.15909C169.056 5.15909 169.505 5.23485 169.948 5.38636C170.391 5.53788 170.795 5.78409 171.158 6.125C171.522 6.46212 171.812 6.90909 172.028 7.46591C172.244 8.02273 172.352 8.70833 172.352 9.52273V10.0909H165.624V8.93182H170.988C170.988 8.43939 170.889 8 170.692 7.61364C170.499 7.22727 170.223 6.92235 169.863 6.69886C169.507 6.47538 169.086 6.36364 168.602 6.36364C168.067 6.36364 167.605 6.49621 167.215 6.76136C166.829 7.02273 166.531 7.36364 166.323 7.78409C166.115 8.20455 166.011 8.6553 166.011 9.13636V9.90909C166.011 10.5682 166.124 11.1269 166.352 11.5852C166.583 12.0398 166.903 12.3864 167.312 12.625C167.721 12.8598 168.196 12.9773 168.738 12.9773C169.09 12.9773 169.408 12.928 169.692 12.8295C169.98 12.7273 170.228 12.5758 170.437 12.375C170.645 12.1705 170.806 11.9167 170.92 11.6136L172.215 11.9773C172.079 12.4167 171.85 12.803 171.528 13.1364C171.206 13.4659 170.808 13.7235 170.335 13.9091C169.861 14.0909 169.329 14.1818 168.738 14.1818ZM178.187 5.27273V6.40909H173.664V5.27273H178.187ZM174.982 3.18182H176.323V11.5C176.323 11.8788 176.378 12.1629 176.488 12.3523C176.602 12.5379 176.746 12.6629 176.92 12.7273C177.098 12.7879 177.285 12.8182 177.482 12.8182C177.63 12.8182 177.751 12.8106 177.846 12.7955C177.941 12.7765 178.016 12.7614 178.073 12.75L178.346 13.9545C178.255 13.9886 178.128 14.0227 177.965 14.0568C177.802 14.0947 177.596 14.1136 177.346 14.1136C176.967 14.1136 176.596 14.0322 176.232 13.8693C175.872 13.7064 175.573 13.4583 175.335 13.125C175.1 12.7917 174.982 12.3712 174.982 11.8636V3.18182Z" fill="black"/>
<path d="M46.4485 49V26.6H60.5605V29.928H49.9045V45.672H60.5605V49H46.4485ZM48.0165 39.176V35.848H58.8005V39.176H48.0165ZM65.2088 49V32.2H68.5368V35.784L67.9288 36.168C68.0994 35.6133 68.3661 35.08 68.7288 34.568C69.1128 34.056 69.5714 33.608 70.1048 33.224C70.6594 32.8187 71.2461 32.4987 71.8648 32.264C72.5048 32.0293 73.1554 31.912 73.8168 31.912C74.7768 31.912 75.6194 32.072 76.3448 32.392C77.0701 32.712 77.6674 33.192 78.1368 33.832C78.6061 34.472 78.9474 35.272 79.1608 36.232L78.6488 36.104L78.8728 35.56C79.1074 35.0693 79.4274 34.6107 79.8328 34.184C80.2594 33.736 80.7394 33.3413 81.2728 33C81.8061 32.6587 82.3714 32.392 82.9688 32.2C83.5661 32.008 84.1528 31.912 84.7288 31.912C85.9874 31.912 87.0221 32.168 87.8328 32.68C88.6648 33.192 89.2834 33.9707 89.6888 35.016C90.1154 36.0613 90.3288 37.3627 90.3288 38.92V49H87.0008V39.112C87.0008 37.6827 86.7234 36.6373 86.1688 35.976C85.6354 35.2933 84.7928 34.952 83.6408 34.952C83.0434 34.952 82.4781 35.0587 81.9448 35.272C81.4328 35.464 80.9848 35.7413 80.6007 36.104C80.2168 36.4667 79.9181 36.8933 79.7048 37.384C79.4914 37.8533 79.3848 38.376 79.3848 38.952V49H76.0568V39.048C76.0568 37.7253 75.7688 36.712 75.1928 36.008C74.6381 35.304 73.8274 34.952 72.7608 34.952C72.1634 34.952 71.6088 35.0587 71.0968 35.272C70.5848 35.464 70.1368 35.7413 69.7528 36.104C69.3688 36.4453 69.0701 36.8613 68.8568 37.352C68.6434 37.8213 68.5368 38.3333 68.5368 38.888V49H65.2088ZM94.7415 56.04V32.2H98.0695V36.04L97.5575 35.752C97.6855 35.112 98.0482 34.504 98.6455 33.928C99.2428 33.3307 99.9682 32.8507 100.822 32.488C101.696 32.104 102.592 31.912 103.51 31.912C105.024 31.912 106.368 32.2853 107.542 33.032C108.715 33.7787 109.643 34.8027 110.326 36.104C111.008 37.4053 111.35 38.8987 111.35 40.584C111.35 42.248 111.008 43.7413 110.326 45.064C109.664 46.3653 108.747 47.4 107.574 48.168C106.4 48.9147 105.078 49.288 103.606 49.288C102.624 49.288 101.675 49.096 100.758 48.712C99.8402 48.3067 99.0615 47.7947 98.4215 47.176C97.7815 46.5573 97.3868 45.9173 97.2375 45.256L98.0695 44.808V56.04H94.7415ZM103.062 46.248C104.043 46.248 104.918 46.0027 105.686 45.512C106.454 45.0213 107.062 44.3493 107.51 43.496C107.958 42.6427 108.182 41.672 108.182 40.584C108.182 39.496 107.958 38.536 107.51 37.704C107.083 36.8507 106.486 36.1787 105.718 35.688C104.95 35.1973 104.064 34.952 103.062 34.952C102.059 34.952 101.174 35.1973 100.406 35.688C99.6375 36.1573 99.0295 36.8187 98.5815 37.672C98.1335 38.5253 97.9095 39.496 97.9095 40.584C97.9095 41.672 98.1335 42.6427 98.5815 43.496C99.0295 44.3493 99.6375 45.0213 100.406 45.512C101.174 46.0027 102.059 46.248 103.062 46.248ZM122.481 49.32C120.838 49.32 119.366 48.9467 118.065 48.2C116.785 47.432 115.772 46.3973 115.025 45.096C114.278 43.7733 113.905 42.2693 113.905 40.584C113.905 38.8987 114.278 37.4053 115.025 36.104C115.772 34.7813 116.785 33.7467 118.065 33C119.366 32.232 120.838 31.848 122.481 31.848C124.102 31.848 125.553 32.232 126.833 33C128.134 33.7467 129.158 34.7813 129.905 36.104C130.652 37.4053 131.025 38.8987 131.025 40.584C131.025 42.2693 130.652 43.7733 129.905 45.096C129.158 46.3973 128.134 47.432 126.833 48.2C125.553 48.9467 124.102 49.32 122.481 49.32ZM122.481 46.312C123.484 46.312 124.38 46.0667 125.169 45.576C125.958 45.064 126.577 44.3813 127.025 43.528C127.473 42.6533 127.686 41.672 127.665 40.584C127.686 39.4747 127.473 38.4933 127.025 37.64C126.577 36.7653 125.958 36.0827 125.169 35.592C124.38 35.1013 123.484 34.856 122.481 34.856C121.478 34.856 120.572 35.112 119.761 35.624C118.972 36.1147 118.353 36.7973 117.905 37.672C117.457 38.5253 117.244 39.496 117.265 40.584C117.244 41.672 117.457 42.6533 117.905 43.528C118.353 44.3813 118.972 45.064 119.761 45.576C120.572 46.0667 121.478 46.312 122.481 46.312ZM138.12 49L132.392 32.2L135.72 32.168L139.816 44.744L139.08 44.68L143.528 34.856H145.512L149.992 44.712L149.128 44.776L153.256 32.2H156.584L150.92 49H148.648L143.976 38.312L144.712 38.408L140.36 49H138.12ZM166.957 49.32C165.229 49.32 163.693 48.9573 162.349 48.232C161.026 47.4853 159.981 46.472 159.213 45.192C158.466 43.912 158.093 42.44 158.093 40.776C158.093 39.4533 158.306 38.248 158.733 37.16C159.159 36.072 159.746 35.1333 160.493 34.344C161.261 33.5333 162.167 32.9147 163.213 32.488C164.279 32.04 165.431 31.816 166.669 31.816C167.757 31.816 168.77 32.0293 169.709 32.456C170.647 32.8613 171.458 33.4267 172.141 34.152C172.845 34.8773 173.378 35.7413 173.741 36.744C174.125 37.7253 174.306 38.8027 174.285 39.976L174.253 41.384H160.525L159.789 38.76H171.405L170.925 39.304V38.536C170.861 37.832 170.626 37.2027 170.221 36.648C169.815 36.0933 169.303 35.656 168.685 35.336C168.066 35.016 167.394 34.856 166.669 34.856C165.517 34.856 164.546 35.08 163.757 35.528C162.967 35.9547 162.37 36.5947 161.965 37.448C161.559 38.28 161.357 39.3147 161.357 40.552C161.357 41.7253 161.602 42.7493 162.093 43.624C162.583 44.4773 163.277 45.1387 164.173 45.608C165.069 46.0773 166.103 46.312 167.277 46.312C168.109 46.312 168.877 46.1733 169.581 45.896C170.306 45.6187 171.085 45.1173 171.917 44.392L173.581 46.728C173.069 47.24 172.439 47.688 171.693 48.072C170.967 48.456 170.189 48.7653 169.357 49C168.546 49.2133 167.746 49.32 166.957 49.32ZM177.867 49V32.2H181.195V37.48L180.875 36.2C181.109 35.3893 181.504 34.6533 182.059 33.992C182.635 33.3307 183.285 32.808 184.01 32.424C184.757 32.04 185.525 31.848 186.315 31.848C186.677 31.848 187.019 31.88 187.339 31.944C187.68 32.008 187.947 32.0827 188.139 32.168L187.275 35.752C187.019 35.6453 186.731 35.56 186.411 35.496C186.112 35.4107 185.813 35.368 185.515 35.368C184.939 35.368 184.384 35.4853 183.851 35.72C183.339 35.9333 182.88 36.2427 182.475 36.648C182.091 37.032 181.781 37.4907 181.547 38.024C181.312 38.536 181.195 39.1013 181.195 39.72V49H177.867ZM202.558 56.36L205.95 48.52L205.982 51.144L197.598 32.2H201.438L206.686 44.552C206.792 44.7653 206.92 45.096 207.07 45.544C207.219 45.9707 207.347 46.3973 207.454 46.824L206.622 47.016C206.792 46.568 206.952 46.12 207.102 45.672C207.272 45.224 207.432 44.776 207.582 44.328L211.966 32.2H215.87L208.958 49L206.11 56.36H202.558ZM225.575 49.32C223.932 49.32 222.46 48.9467 221.159 48.2C219.879 47.432 218.865 46.3973 218.119 45.096C217.372 43.7733 216.999 42.2693 216.999 40.584C216.999 38.8987 217.372 37.4053 218.119 36.104C218.865 34.7813 219.879 33.7467 221.159 33C222.46 32.232 223.932 31.848 225.575 31.848C227.196 31.848 228.647 32.232 229.927 33C231.228 33.7467 232.252 34.7813 232.999 36.104C233.745 37.4053 234.119 38.8987 234.119 40.584C234.119 42.2693 233.745 43.7733 232.999 45.096C232.252 46.3973 231.228 47.432 229.927 48.2C228.647 48.9467 227.196 49.32 225.575 49.32ZM225.575 46.312C226.577 46.312 227.473 46.0667 228.263 45.576C229.052 45.064 229.671 44.3813 230.119 43.528C230.567 42.6533 230.78 41.672 230.759 40.584C230.78 39.4747 230.567 38.4933 230.119 37.64C229.671 36.7653 229.052 36.0827 228.263 35.592C227.473 35.1013 226.577 34.856 225.575 34.856C224.572 34.856 223.665 35.112 222.855 35.624C222.065 36.1147 221.447 36.7973 220.999 37.672C220.551 38.5253 220.337 39.496 220.359 40.584C220.337 41.672 220.551 42.6533 220.999 43.528C221.447 44.3813 222.065 45.064 222.855 45.576C223.665 46.0667 224.572 46.312 225.575 46.312ZM243.598 49.32C242.404 49.32 241.358 49.0427 240.462 48.488C239.588 47.9333 238.905 47.1547 238.414 46.152C237.945 45.1493 237.71 43.9547 237.71 42.568V32.2H241.006V41.672C241.006 43.144 241.348 44.3067 242.03 45.16C242.734 46.0133 243.705 46.44 244.942 46.44C245.561 46.44 246.126 46.344 246.638 46.152C247.15 45.9387 247.588 45.6507 247.95 45.288C248.334 44.9253 248.633 44.488 248.846 43.976C249.06 43.464 249.166 42.9093 249.166 42.312V32.2H252.462V49H249.166V45.48L249.742 45.096C249.486 45.8853 249.049 46.6 248.43 47.24C247.833 47.88 247.118 48.392 246.286 48.776C245.454 49.1387 244.558 49.32 243.598 49.32ZM257.085 49V32.2H260.413V37.48L260.093 36.2C260.328 35.3893 260.723 34.6533 261.277 33.992C261.853 33.3307 262.504 32.808 263.229 32.424C263.976 32.04 264.744 31.848 265.533 31.848C265.896 31.848 266.237 31.88 266.557 31.944C266.899 32.008 267.165 32.0827 267.357 32.168L266.493 35.752C266.237 35.6453 265.949 35.56 265.629 35.496C265.331 35.4107 265.032 35.368 264.733 35.368C264.157 35.368 263.603 35.4853 263.069 35.72C262.557 35.9333 262.099 36.2427 261.693 36.648C261.309 37.032 261 37.4907 260.765 38.024C260.531 38.536 260.413 39.1013 260.413 39.72V49H257.085ZM123.979 88L118.251 71.2L121.579 71.168L125.675 83.744L124.939 83.68L129.387 73.856H131.371L135.851 83.712L134.987 83.776L139.115 71.2H142.443L136.779 88H134.507L129.835 77.312L130.571 77.408L126.219 88H123.979ZM152.528 88.32C150.885 88.32 149.413 87.9467 148.112 87.2C146.832 86.432 145.819 85.3973 145.072 84.096C144.325 82.7733 143.952 81.2693 143.952 79.584C143.952 77.8987 144.325 76.4053 145.072 75.104C145.819 73.7813 146.832 72.7467 148.112 72C149.413 71.232 150.885 70.848 152.528 70.848C154.149 70.848 155.6 71.232 156.88 72C158.181 72.7467 159.205 73.7813 159.952 75.104C160.699 76.4053 161.072 77.8987 161.072 79.584C161.072 81.2693 160.699 82.7733 159.952 84.096C159.205 85.3973 158.181 86.432 156.88 87.2C155.6 87.9467 154.149 88.32 152.528 88.32ZM152.528 85.312C153.531 85.312 154.427 85.0667 155.216 84.576C156.005 84.064 156.624 83.3813 157.072 82.528C157.52 81.6533 157.733 80.672 157.712 79.584C157.733 78.4747 157.52 77.4933 157.072 76.64C156.624 75.7653 156.005 75.0827 155.216 74.592C154.427 74.1013 153.531 73.856 152.528 73.856C151.525 73.856 150.619 74.112 149.808 74.624C149.019 75.1147 148.4 75.7973 147.952 76.672C147.504 77.5253 147.291 78.496 147.312 79.584C147.291 80.672 147.504 81.6533 147.952 82.528C148.4 83.3813 149.019 84.064 149.808 84.576C150.619 85.0667 151.525 85.312 152.528 85.312ZM164.663 88V71.2H167.991V76.48L167.671 75.2C167.906 74.3893 168.301 73.6533 168.855 72.992C169.431 72.3307 170.082 71.808 170.807 71.424C171.554 71.04 172.322 70.848 173.111 70.848C173.474 70.848 173.815 70.88 174.135 70.944C174.477 71.008 174.743 71.0827 174.935 71.168L174.071 74.752C173.815 74.6453 173.527 74.56 173.207 74.496C172.909 74.4107 172.61 74.368 172.311 74.368C171.735 74.368 171.181 74.4853 170.647 74.72C170.135 74.9333 169.677 75.2427 169.271 75.648C168.887 76.032 168.578 76.4907 168.343 77.024C168.109 77.536 167.991 78.1013 167.991 78.72V88H164.663ZM180.578 82.752L180.418 79.168L188.45 71.2H192.898L180.578 82.752ZM177.57 88V64.32H180.866V88H177.57ZM188.898 88L182.562 80.608L184.898 78.464L193.122 88H188.898Z" fill="black"/>
</svg>
