<svg width="175" height="97" viewBox="0 0 175 97" fill="none" xmlns="http://www.w3.org/2000/svg">
<path d="M133.771 15L130.788 4.09091H132.131L134.411 12.9759H134.517L136.839 4.09091H138.331L140.653 12.9759H140.76L143.04 4.09091H144.382L141.399 15H140.036L137.628 6.30682H137.543L135.135 15H133.771ZM147.504 15.1918C146.985 15.1918 146.515 15.0941 146.092 14.8988C145.669 14.6999 145.334 14.4141 145.085 14.0412C144.837 13.6648 144.712 13.2102 144.712 12.6776C144.712 12.2088 144.805 11.8288 144.989 11.5376C145.174 11.2429 145.421 11.0121 145.73 10.8452C146.039 10.6783 146.38 10.554 146.752 10.4723C147.129 10.3871 147.507 10.3196 147.887 10.2699C148.384 10.206 148.787 10.158 149.096 10.1261C149.409 10.0906 149.636 10.032 149.778 9.95028C149.924 9.86861 149.996 9.72656 149.996 9.52415V9.48153C149.996 8.95597 149.853 8.54759 149.565 8.25639C149.281 7.9652 148.849 7.8196 148.271 7.8196C147.67 7.8196 147.2 7.95099 146.859 8.21378C146.518 8.47656 146.278 8.7571 146.14 9.0554L144.947 8.62926C145.16 8.1321 145.444 7.74503 145.799 7.46804C146.158 7.1875 146.548 6.99219 146.971 6.8821C147.397 6.76847 147.816 6.71165 148.228 6.71165C148.491 6.71165 148.793 6.74361 149.134 6.80753C149.478 6.8679 149.81 6.99396 150.13 7.18572C150.453 7.37749 150.721 7.6669 150.934 8.05398C151.147 8.44105 151.254 8.95952 151.254 9.60938V15H149.996V13.892H149.933C149.847 14.0696 149.705 14.2596 149.506 14.462C149.308 14.6644 149.043 14.8366 148.713 14.9787C148.382 15.1207 147.979 15.1918 147.504 15.1918ZM147.695 14.0625C148.192 14.0625 148.612 13.9648 148.952 13.7695C149.297 13.5742 149.556 13.3221 149.73 13.0131C149.908 12.7042 149.996 12.3793 149.996 12.0384V10.8878C149.943 10.9517 149.826 11.0103 149.645 11.0636C149.467 11.1133 149.261 11.1577 149.027 11.1967C148.796 11.2322 148.571 11.2642 148.35 11.2926C148.134 11.3175 147.958 11.3388 147.823 11.3565C147.496 11.3991 147.191 11.4684 146.907 11.5643C146.626 11.6566 146.399 11.7969 146.225 11.9851C146.055 12.1697 145.969 12.4219 145.969 12.7415C145.969 13.1783 146.131 13.5085 146.454 13.7322C146.781 13.9524 147.195 14.0625 147.695 14.0625ZM157.106 6.81818V7.88352H152.866V6.81818H157.106ZM154.102 4.85795H155.359V12.6562C155.359 13.0114 155.411 13.2777 155.514 13.4553C155.62 13.6293 155.755 13.7464 155.918 13.8068C156.085 13.8636 156.261 13.892 156.446 13.892C156.584 13.892 156.698 13.8849 156.787 13.8707C156.875 13.853 156.946 13.8388 157 13.8281L157.255 14.9574C157.17 14.9893 157.051 15.0213 156.899 15.0533C156.746 15.0888 156.552 15.1065 156.318 15.1065C155.963 15.1065 155.615 15.0302 155.274 14.8775C154.937 14.7248 154.656 14.4922 154.432 14.1797C154.212 13.8672 154.102 13.473 154.102 12.9972V4.85795ZM162.233 15.1705C161.466 15.1705 160.806 14.9893 160.252 14.6271C159.698 14.2649 159.272 13.766 158.973 13.1303C158.675 12.4947 158.526 11.7685 158.526 10.9517C158.526 10.1207 158.679 9.38743 158.984 8.75178C159.293 8.11257 159.723 7.61364 160.273 7.25497C160.827 6.89276 161.473 6.71165 162.212 6.71165C162.787 6.71165 163.306 6.81818 163.767 7.03125C164.229 7.24432 164.607 7.54261 164.902 7.92614C165.197 8.30966 165.38 8.7571 165.451 9.26847H164.193C164.098 8.8956 163.884 8.56534 163.554 8.2777C163.228 7.98651 162.787 7.84091 162.233 7.84091C161.743 7.84091 161.313 7.96875 160.944 8.22443C160.578 8.47656 160.293 8.83345 160.087 9.2951C159.884 9.7532 159.783 10.2912 159.783 10.9091C159.783 11.5412 159.882 12.0916 160.081 12.5604C160.284 13.0291 160.568 13.3931 160.934 13.6523C161.303 13.9116 161.736 14.0412 162.233 14.0412C162.56 14.0412 162.856 13.9844 163.123 13.8707C163.389 13.7571 163.615 13.5938 163.799 13.3807C163.984 13.1676 164.115 12.9119 164.193 12.6136H165.451C165.38 13.0966 165.204 13.5316 164.923 13.9187C164.646 14.3022 164.279 14.6076 163.821 14.8349C163.366 15.0586 162.837 15.1705 162.233 15.1705ZM168.545 10.0781V15H167.288V4.09091H168.545V8.09659H168.652C168.844 7.67401 169.131 7.33842 169.515 7.08984C169.902 6.83771 170.417 6.71165 171.06 6.71165C171.617 6.71165 172.105 6.82351 172.524 7.04723C172.943 7.2674 173.268 7.60653 173.499 8.06463C173.734 8.51918 173.851 9.09801 173.851 9.80114V15H172.594V9.88636C172.594 9.23651 172.425 8.73402 172.088 8.37891C171.754 8.02024 171.29 7.84091 170.697 7.84091C170.285 7.84091 169.916 7.92791 169.589 8.10192C169.266 8.27592 169.011 8.52983 168.822 8.86364C168.638 9.19744 168.545 9.60227 168.545 10.0781Z" fill="black"/>
<path d="M56.386 50V27.6H59.49L73.186 45.936L72.674 46.224C72.5247 45.3493 72.3967 44.336 72.29 43.184C72.2047 42.032 72.1407 40.7627 72.098 39.376C72.0553 37.9893 72.034 36.5173 72.034 34.96V27.6H75.49V50H72.322L58.85 32.336L59.202 31.888C59.3513 33.5093 59.4687 34.8427 59.554 35.888C59.6393 36.912 59.7033 37.7333 59.746 38.352C59.7887 38.9707 59.81 39.4613 59.81 39.824C59.8313 40.1653 59.842 40.4533 59.842 40.688V50H56.386ZM88.481 50.32C86.8383 50.32 85.3663 49.9467 84.065 49.2C82.785 48.432 81.7717 47.3973 81.025 46.096C80.2783 44.7733 79.905 43.2693 79.905 41.584C79.905 39.8987 80.2783 38.4053 81.025 37.104C81.7717 35.7813 82.785 34.7467 84.065 34C85.3663 33.232 86.8383 32.848 88.481 32.848C90.1023 32.848 91.553 33.232 92.833 34C94.1343 34.7467 95.1583 35.7813 95.905 37.104C96.6517 38.4053 97.025 39.8987 97.025 41.584C97.025 43.2693 96.6517 44.7733 95.905 46.096C95.1583 47.3973 94.1343 48.432 92.833 49.2C91.553 49.9467 90.1023 50.32 88.481 50.32ZM88.481 47.312C89.4837 47.312 90.3797 47.0667 91.169 46.576C91.9583 46.064 92.577 45.3813 93.025 44.528C93.473 43.6533 93.6863 42.672 93.665 41.584C93.6863 40.4747 93.473 39.4933 93.025 38.64C92.577 37.7653 91.9583 37.0827 91.169 36.592C90.3797 36.1013 89.4837 35.856 88.481 35.856C87.4783 35.856 86.5717 36.112 85.761 36.624C84.9717 37.1147 84.353 37.7973 83.905 38.672C83.457 39.5253 83.2437 40.496 83.265 41.584C83.2437 42.672 83.457 43.6533 83.905 44.528C84.353 45.3813 84.9717 46.064 85.761 46.576C86.5717 47.0667 87.4783 47.312 88.481 47.312ZM102.697 50V28.912H105.993V50H102.697ZM99.2085 36.4V33.2H109.897V36.4H99.2085ZM119.851 56.304L118.602 53.776C119.84 53.776 120.768 53.456 121.387 52.816C122.005 52.176 122.315 51.2267 122.315 49.968V33.2H125.611V50.768C125.611 51.856 125.365 52.816 124.875 53.648C124.405 54.48 123.733 55.1307 122.859 55.6C122.005 56.0693 121.003 56.304 119.851 56.304ZM124.043 29.488C123.339 29.488 122.795 29.3067 122.411 28.944C122.027 28.5813 121.835 28.0693 121.835 27.408C121.835 26.7893 122.027 26.288 122.411 25.904C122.816 25.52 123.36 25.328 124.043 25.328C124.747 25.328 125.291 25.5093 125.675 25.872C126.059 26.2347 126.251 26.7467 126.251 27.408C126.251 28.0267 126.048 28.528 125.643 28.912C125.259 29.296 124.725 29.488 124.043 29.488ZM136.223 50.32C135.029 50.32 133.983 50.0427 133.087 49.488C132.213 48.9333 131.53 48.1547 131.039 47.152C130.57 46.1493 130.335 44.9547 130.335 43.568V33.2H133.631V42.672C133.631 44.144 133.973 45.3067 134.655 46.16C135.359 47.0133 136.33 47.44 137.567 47.44C138.186 47.44 138.751 47.344 139.263 47.152C139.775 46.9387 140.213 46.6507 140.575 46.288C140.959 45.9253 141.258 45.488 141.471 44.976C141.685 44.464 141.791 43.9093 141.791 43.312V33.2H145.087V50H141.791V46.48L142.367 46.096C142.111 46.8853 141.674 47.6 141.055 48.24C140.458 48.88 139.743 49.392 138.911 49.776C138.079 50.1387 137.183 50.32 136.223 50.32ZM155.31 50.32C153.902 50.32 152.633 50.0747 151.502 49.584C150.372 49.0933 149.433 48.368 148.686 47.408L150.926 45.488C151.566 46.2347 152.26 46.7787 153.006 47.12C153.774 47.44 154.638 47.6 155.598 47.6C155.982 47.6 156.334 47.5573 156.654 47.472C156.996 47.3653 157.284 47.216 157.518 47.024C157.774 46.832 157.966 46.608 158.094 46.352C158.222 46.0747 158.286 45.776 158.286 45.456C158.286 44.9013 158.084 44.4533 157.678 44.112C157.465 43.9627 157.124 43.8027 156.654 43.632C156.206 43.44 155.62 43.248 154.894 43.056C153.657 42.736 152.644 42.3733 151.854 41.968C151.065 41.5627 150.457 41.104 150.03 40.592C149.71 40.1867 149.476 39.7493 149.326 39.28C149.177 38.7893 149.102 38.256 149.102 37.68C149.102 36.7413 149.369 35.9093 149.902 35.184C150.436 34.4587 151.15 33.8933 152.046 33.488C152.964 33.0613 153.988 32.848 155.118 32.848C155.908 32.848 156.686 32.9547 157.454 33.168C158.244 33.3813 158.969 33.6907 159.63 34.096C160.292 34.5013 160.846 34.9813 161.294 35.536L159.406 37.616C159.001 37.2107 158.553 36.8587 158.062 36.56C157.593 36.24 157.113 35.9947 156.622 35.824C156.132 35.6533 155.684 35.568 155.278 35.568C154.83 35.568 154.425 35.6107 154.062 35.696C153.7 35.7813 153.39 35.9093 153.134 36.08C152.9 36.2507 152.718 36.464 152.59 36.72C152.462 36.976 152.398 37.264 152.398 37.584C152.42 37.8613 152.484 38.128 152.59 38.384C152.718 38.6187 152.889 38.8213 153.102 38.992C153.337 39.1627 153.689 39.344 154.158 39.536C154.628 39.728 155.225 39.9093 155.95 40.08C157.017 40.3573 157.892 40.6667 158.574 41.008C159.278 41.328 159.833 41.7013 160.238 42.128C160.665 42.5333 160.964 43.0027 161.134 43.536C161.305 44.0693 161.39 44.6667 161.39 45.328C161.39 46.288 161.113 47.152 160.558 47.92C160.025 48.6667 159.3 49.2533 158.382 49.68C157.465 50.1067 156.441 50.32 155.31 50.32ZM167.103 50V28.912H170.399V50H167.103ZM163.615 36.4V33.2H174.303V36.4H163.615ZM73.154 89.32C71.746 89.32 70.4767 89.0747 69.346 88.584C68.2153 88.0933 67.2767 87.368 66.53 86.408L68.77 84.488C69.41 85.2347 70.1033 85.7787 70.85 86.12C71.618 86.44 72.482 86.6 73.442 86.6C73.826 86.6 74.178 86.5573 74.498 86.472C74.8393 86.3653 75.1273 86.216 75.362 86.024C75.618 85.832 75.81 85.608 75.938 85.352C76.066 85.0747 76.13 84.776 76.13 84.456C76.13 83.9013 75.9273 83.4533 75.522 83.112C75.3087 82.9627 74.9673 82.8027 74.498 82.632C74.05 82.44 73.4633 82.248 72.738 82.056C71.5007 81.736 70.4873 81.3733 69.698 80.968C68.9087 80.5627 68.3007 80.104 67.874 79.592C67.554 79.1867 67.3193 78.7493 67.17 78.28C67.0207 77.7893 66.946 77.256 66.946 76.68C66.946 75.7413 67.2127 74.9093 67.746 74.184C68.2793 73.4587 68.994 72.8933 69.89 72.488C70.8073 72.0613 71.8313 71.848 72.962 71.848C73.7513 71.848 74.53 71.9547 75.298 72.168C76.0873 72.3813 76.8127 72.6907 77.474 73.096C78.1353 73.5013 78.69 73.9813 79.138 74.536L77.25 76.616C76.8447 76.2107 76.3967 75.8587 75.906 75.56C75.4367 75.24 74.9567 74.9947 74.466 74.824C73.9753 74.6533 73.5273 74.568 73.122 74.568C72.674 74.568 72.2687 74.6107 71.906 74.696C71.5433 74.7813 71.234 74.9093 70.978 75.08C70.7433 75.2507 70.562 75.464 70.434 75.72C70.306 75.976 70.242 76.264 70.242 76.584C70.2633 76.8613 70.3273 77.128 70.434 77.384C70.562 77.6187 70.7327 77.8213 70.946 77.992C71.1807 78.1627 71.5327 78.344 72.002 78.536C72.4713 78.728 73.0687 78.9093 73.794 79.08C74.8607 79.3573 75.7353 79.6667 76.418 80.008C77.122 80.328 77.6767 80.7013 78.082 81.128C78.5087 81.5333 78.8073 82.0027 78.978 82.536C79.1487 83.0693 79.234 83.6667 79.234 84.328C79.234 85.288 78.9567 86.152 78.402 86.92C77.8687 87.6667 77.1433 88.2533 76.226 88.68C75.3087 89.1067 74.2847 89.32 73.154 89.32ZM84.9465 89V67.912H88.2425V89H84.9465ZM81.4585 75.4V72.2H92.1465V75.4H81.4585ZM97.9638 96.36L101.356 88.52L101.388 91.144L93.0038 72.2H96.8438L102.092 84.552C102.198 84.7653 102.326 85.096 102.476 85.544C102.625 85.9707 102.753 86.3973 102.86 86.824L102.028 87.016C102.198 86.568 102.358 86.12 102.508 85.672C102.678 85.224 102.838 84.776 102.988 84.328L107.372 72.2H111.276L104.364 89L101.516 96.36H97.9638ZM113.806 89V65.32H117.102V89H113.806ZM122.317 89V72.2H125.613V89H122.317ZM123.917 68.488C123.213 68.488 122.669 68.3067 122.285 67.944C121.901 67.5813 121.709 67.0693 121.709 66.408C121.709 65.7893 121.901 65.288 122.285 64.904C122.69 64.52 123.234 64.328 123.917 64.328C124.621 64.328 125.165 64.5093 125.549 64.872C125.933 65.2347 126.125 65.7467 126.125 66.408C126.125 67.0267 125.922 67.528 125.517 67.912C125.133 68.296 124.599 68.488 123.917 68.488ZM136.279 89.32C134.871 89.32 133.602 89.0747 132.471 88.584C131.34 88.0933 130.402 87.368 129.655 86.408L131.895 84.488C132.535 85.2347 133.228 85.7787 133.975 86.12C134.743 86.44 135.607 86.6 136.567 86.6C136.951 86.6 137.303 86.5573 137.623 86.472C137.964 86.3653 138.252 86.216 138.487 86.024C138.743 85.832 138.935 85.608 139.063 85.352C139.191 85.0747 139.255 84.776 139.255 84.456C139.255 83.9013 139.052 83.4533 138.647 83.112C138.434 82.9627 138.092 82.8027 137.623 82.632C137.175 82.44 136.588 82.248 135.863 82.056C134.626 81.736 133.612 81.3733 132.823 80.968C132.034 80.5627 131.426 80.104 130.999 79.592C130.679 79.1867 130.444 78.7493 130.295 78.28C130.146 77.7893 130.071 77.256 130.071 76.68C130.071 75.7413 130.338 74.9093 130.871 74.184C131.404 73.4587 132.119 72.8933 133.015 72.488C133.932 72.0613 134.956 71.848 136.087 71.848C136.876 71.848 137.655 71.9547 138.423 72.168C139.212 72.3813 139.938 72.6907 140.599 73.096C141.26 73.5013 141.815 73.9813 142.263 74.536L140.375 76.616C139.97 76.2107 139.522 75.8587 139.031 75.56C138.562 75.24 138.082 74.9947 137.591 74.824C137.1 74.6533 136.652 74.568 136.247 74.568C135.799 74.568 135.394 74.6107 135.031 74.696C134.668 74.7813 134.359 74.9093 134.103 75.08C133.868 75.2507 133.687 75.464 133.559 75.72C133.431 75.976 133.367 76.264 133.367 76.584C133.388 76.8613 133.452 77.128 133.559 77.384C133.687 77.6187 133.858 77.8213 134.071 77.992C134.306 78.1627 134.658 78.344 135.127 78.536C135.596 78.728 136.194 78.9093 136.919 79.08C137.986 79.3573 138.86 79.6667 139.543 80.008C140.247 80.328 140.802 80.7013 141.207 81.128C141.634 81.5333 141.932 82.0027 142.103 82.536C142.274 83.0693 142.359 83.6667 142.359 84.328C142.359 85.288 142.082 86.152 141.527 86.92C140.994 87.6667 140.268 88.2533 139.351 88.68C138.434 89.1067 137.41 89.32 136.279 89.32ZM145.992 89V65.32H149.288V75.656L148.712 76.04C148.925 75.2933 149.341 74.6107 149.96 73.992C150.578 73.352 151.314 72.84 152.168 72.456C153.021 72.0507 153.896 71.848 154.792 71.848C156.072 71.848 157.138 72.104 157.992 72.616C158.845 73.1067 159.485 73.864 159.912 74.888C160.338 75.912 160.552 77.2027 160.552 78.76V89H157.256V78.984C157.256 78.024 157.128 77.2347 156.872 76.616C156.616 75.976 156.221 75.5173 155.688 75.24C155.154 74.9413 154.493 74.8133 153.704 74.856C153.064 74.856 152.477 74.9627 151.944 75.176C151.41 75.368 150.941 75.6453 150.536 76.008C150.152 76.3707 149.842 76.7973 149.608 77.288C149.394 77.7573 149.288 78.2693 149.288 78.824V89H147.656C147.378 89 147.101 89 146.824 89C146.546 89 146.269 89 145.992 89ZM167.103 89V67.912H170.399V89H167.103ZM163.615 75.4V72.2H174.303V75.4H163.615Z" fill="black"/>
</svg>
